<?xml version="1.0" standalone="no"?>
<!DOCTYPE svg PUBLIC "-//W3C//DTD SVG 20010904//EN"
 "http://www.w3.org/TR/2001/REC-SVG-20010904/DTD/svg10.dtd">
<svg version="1.0" xmlns="http://www.w3.org/2000/svg"
 width="1024.000000pt" height="1024.000000pt" viewBox="0 0 1024.000000 1024.000000"
 preserveAspectRatio="xMidYMid meet">
<metadata>
Created by potrace 1.14, written by Peter Selinger 2001-2017
</metadata>
<g transform="translate(0.000000,1024.000000) scale(0.100000,-0.100000)"
fill="#000000" stroke="none">
<path d="M0 5120 l0 -5120 5120 0 5120 0 0 1360 c0 1287 -1 1361 -17 1366 -10
3 -33 12 -51 20 -35 15 -57 6 -57 -23 0 -7 -4 -13 -10 -12 -5 0 -9 7 -9 15 3
24 -31 16 -59 -14 -19 -20 -25 -34 -21 -47 6 -16 4 -15 -14 3 -12 12 -26 22
-30 22 -11 0 -71 -106 -79 -139 -3 -14 -23 -44 -43 -67 -21 -23 -41 -51 -45
-63 -10 -33 -51 -27 -91 14 -19 20 -34 32 -34 28 0 -5 -5 0 -11 10 -10 18 -11
18 -24 0 -12 -15 -17 -16 -34 -5 -27 16 -31 15 -25 -5 5 -15 4 -15 -6 1 -10
14 -9 20 1 28 11 8 11 9 -1 6 -8 -3 -30 -29 -48 -59 -36 -61 -63 -76 -150 -85
l-57 -6 -18 63 c-39 138 -47 163 -55 171 -4 4 -24 5 -45 1 -30 -4 -37 -10 -37
-28 0 -16 -23 -43 -76 -89 -67 -59 -79 -66 -118 -66 -45 0 -216 -33 -263 -51
-15 -6 -30 -15 -34 -20 -3 -5 -35 -11 -70 -13 -38 -2 -91 -14 -131 -29 -62
-24 -77 -26 -221 -25 -135 1 -162 -2 -222 -22 -59 -20 -66 -24 -47 -31 34 -13
277 -12 372 0 189 26 177 23 150 31 -14 4 43 7 126 7 83 0 155 3 160 6 17 10
129 20 184 16 30 -2 273 -4 540 -4 l485 0 -2 38 c-2 36 10 50 20 25 13 -31 5
31 -8 67 -8 22 -15 62 -15 89 0 55 8 59 11 5 1 -18 11 -65 23 -103 16 -53 18
-70 8 -73 -6 -3 -12 -13 -12 -24 0 -25 55 -27 64 -3 4 12 2 15 -9 10 -8 -3
-15 -1 -15 3 0 5 -3 16 -6 25 -3 9 -1 16 5 16 6 0 10 -3 9 -7 -2 -5 2 -9 7
-11 6 -1 11 15 12 35 4 53 23 143 31 143 4 0 7 -70 7 -156 l0 -156 -84 -36
c-68 -30 -86 -42 -99 -69 -15 -31 -14 -35 4 -70 37 -69 27 -77 -111 -89 -120
-9 -133 -18 -149 -96 -4 -16 -16 -30 -33 -36 -16 -6 -41 -22 -57 -36 -27 -24
-82 -46 -116 -46 -25 0 -128 -46 -151 -66 -18 -16 -38 -19 -148 -20 -170 -1
-246 -11 -308 -40 -28 -13 -65 -24 -81 -24 -21 0 -46 -15 -89 -54 -52 -45 -68
-54 -113 -60 -85 -11 -158 -58 -174 -112 -9 -28 -103 -117 -119 -112 -7 3 -16
14 -22 26 -18 41 -130 25 -170 -24 -15 -18 -35 -27 -77 -34 -64 -10 -112 -32
-147 -66 -13 -13 -30 -24 -37 -24 -8 0 -46 -11 -86 -24 -40 -13 -85 -26 -100
-30 -15 -3 -33 -12 -40 -19 -21 -20 -111 -74 -135 -81 -12 -4 -46 -35 -75 -69
-72 -84 -88 -95 -88 -57 0 11 -4 20 -10 20 -10 0 -14 -14 -11 -37 2 -15 -74
-53 -106 -53 -14 0 -21 -4 -18 -10 3 -5 -3 -10 -14 -10 -12 0 -21 -4 -21 -9 0
-5 -8 -12 -18 -15 -10 -4 -27 -14 -38 -24 -10 -9 -39 -28 -62 -41 -40 -21 -43
-22 -40 -5 2 15 -4 19 -32 20 -19 0 -41 -4 -47 -9 -15 -11 -50 0 -37 12 14 13
135 21 127 8 -4 -7 0 -8 11 -4 10 4 21 7 24 7 4 0 0 5 -8 10 -12 8 -9 10 13
10 16 0 26 4 22 10 -3 5 -16 10 -29 10 -12 0 -26 3 -30 7 -10 10 -67 14 -86 6
-10 -4 -3 -9 20 -13 l35 -7 -40 -3 c-35 -2 -37 -3 -15 -10 21 -7 19 -8 -17 -9
-24 -1 -43 4 -43 10 0 5 5 7 10 4 6 -3 10 -1 10 4 0 6 -5 11 -11 11 -5 0 -7 5
-3 12 5 7 2 9 -7 6 -15 -6 -54 20 -56 37 -2 17 -73 29 -86 15 -9 -10 -9 -11 3
-5 8 5 12 5 8 0 -4 -4 -27 -8 -52 -9 -42 -1 -44 0 -29 17 11 11 32 17 62 18
40 1 42 2 16 8 -28 7 -27 8 20 16 28 5 56 7 64 6 7 -1 10 2 6 8 -3 6 -2 11 4
11 16 0 24 -22 11 -30 -10 -6 -9 -9 1 -13 8 -3 -6 -6 -31 -7 -45 -1 -45 -1 35
-25 75 -23 110 -29 145 -26 13 1 13 2 0 11 -13 9 -13 11 0 21 13 9 13 10 -2 5
-12 -3 -15 -1 -12 9 5 11 -2 13 -31 10 -41 -6 -79 18 -48 29 9 4 21 2 27 -4 5
-5 15 -10 20 -10 6 0 1 7 -11 15 -12 9 -29 12 -40 8 -16 -6 -17 -5 -3 12 14
17 14 18 -7 7 -12 -7 -25 -12 -30 -12 -4 1 4 8 20 16 15 8 32 12 37 9 6 -3 10
-2 10 3 0 6 19 20 43 32 23 12 51 30 63 41 11 11 22 17 25 15 2 -2 5 15 7 38
3 43 -16 75 -36 62 -5 -3 -30 1 -56 10 -42 15 -49 14 -93 -2 -27 -10 -52 -21
-58 -24 -11 -8 -86 -24 -97 -22 -5 1 -8 -2 -8 -7 0 -5 -10 -7 -22 -3 -16 4
-19 2 -14 -9 4 -8 0 -5 -8 5 -9 11 -16 15 -16 10 0 -15 21 -38 58 -63 17 -12
32 -29 32 -37 0 -14 -2 -15 -43 -17 -31 -1 -89 34 -82 51 4 10 0 12 -11 8 -14
-5 -16 -1 -10 24 3 17 2 29 -3 26 -5 -3 -11 1 -15 9 -3 8 -17 15 -31 15 -17 0
-24 4 -19 11 4 8 1 8 -12 1 -14 -7 -25 -6 -39 5 -19 14 -19 15 -2 26 10 7 28
20 40 30 11 10 27 15 34 13 25 -10 13 13 -22 40 -19 14 -35 32 -35 39 0 6 -13
51 -29 99 -16 49 -27 94 -25 101 3 7 0 16 -7 21 -9 5 -10 2 -6 -9 3 -10 2 -17
-4 -17 -11 0 -4 48 12 85 7 16 9 13 6 -13 -2 -17 0 -32 5 -32 4 0 8 12 9 28
l1 27 9 -25 c8 -22 8 -21 4 8 -3 19 0 32 6 32 6 0 8 7 5 16 -7 19 11 47 25 38
5 -3 6 2 3 10 -3 9 -11 13 -18 9 -12 -7 -2 6 62 81 23 27 42 53 42 57 0 16
-55 -13 -92 -48 -21 -21 -41 -32 -48 -28 -8 5 3 16 29 32 24 14 38 29 35 35
-4 6 -2 8 3 5 15 -9 37 20 39 50 0 15 -7 28 -19 35 -14 7 -16 12 -8 17 8 5 1
16 -22 34 -19 14 -38 23 -41 19 -4 -3 -4 1 -1 9 4 11 -1 18 -15 22 -15 4 -19
2 -12 -6 5 -7 12 -23 15 -37 l6 -25 -19 25 c-11 14 -20 30 -20 37 0 6 -9 15
-20 18 -20 6 -28 25 -11 25 5 0 8 19 7 41 -2 29 -9 47 -24 60 -20 16 -21 18
-5 21 10 2 29 -7 43 -20 14 -12 33 -21 43 -18 9 2 15 1 12 -3 -2 -5 6 -17 19
-29 13 -11 29 -28 34 -39 9 -15 13 -16 24 -4 8 8 8 11 1 7 -7 -4 -13 4 -15 21
-2 16 -7 27 -13 26 -5 0 -16 5 -23 13 -7 8 -10 14 -7 14 3 0 -2 8 -11 18 -8 9
-23 28 -34 42 -21 28 -37 22 -21 -8 9 -17 8 -19 -8 -15 -13 3 -18 11 -14 21 4
12 1 11 -10 -3 -16 -20 -16 -19 -17 8 0 18 5 27 16 27 11 0 9 6 -9 23 -13 12
-26 30 -30 40 -4 10 -11 15 -17 12 -5 -3 -15 13 -22 38 -9 36 -15 43 -33 42
-13 -2 -22 3 -22 11 0 10 4 11 13 3 16 -13 54 5 54 27 0 8 -5 12 -10 9 -7 -4
-9 2 -5 18 5 17 2 26 -9 30 -9 4 -16 13 -16 22 0 9 -8 15 -22 14 -17 -1 -19
-2 -5 -6 10 -3 17 -13 16 -26 -1 -17 -2 -18 -6 -4 -2 9 -11 17 -19 17 -8 0
-14 8 -14 18 0 14 -2 15 -10 2 -6 -10 -6 -16 0 -18 15 -5 12 -22 -3 -22 -8 0
-20 -18 -27 -40 -14 -41 -30 -53 -30 -22 0 9 -4 23 -9 31 -9 14 -26 -26 -51
-117 -15 -56 -22 -50 -9 7 7 33 7 46 -2 52 -10 6 -10 11 -1 22 10 12 10 16 -2
20 -8 3 -17 1 -20 -6 -2 -7 -5 2 -6 18 -1 30 -1 30 -18 9 -9 -11 -28 -35 -41
-52 -25 -33 -47 -43 -37 -17 3 8 0 15 -7 15 -7 1 -2 9 11 19 15 13 18 21 10
24 -10 4 -10 6 0 6 6 1 12 6 12 12 0 6 -9 8 -20 4 -14 -4 -20 -2 -18 6 2 7 -8
16 -22 20 -14 4 -19 7 -12 8 15 1 48 31 35 31 -5 0 -9 14 -8 30 0 23 4 29 15
25 11 -5 12 -3 3 6 -8 8 -23 7 -63 -6 -28 -9 -54 -14 -57 -11 -4 3 -1 6 6 6
21 0 81 32 81 43 0 5 -8 16 -17 24 -16 12 -14 13 17 8 24 -3 29 -2 15 3 -19 9
-19 9 0 20 16 9 17 13 6 21 -11 7 -11 9 0 14 9 3 6 6 -7 6 -17 1 -32 31 -15
31 3 0 19 17 36 38 16 20 21 31 12 23 -10 -8 -17 -9 -17 -3 0 6 4 14 10 17 5
3 10 11 10 17 0 6 -7 5 -17 -3 -15 -13 -15 -12 -5 8 7 12 12 30 12 40 -1 10
-7 1 -15 -21 -15 -41 -80 -116 -102 -116 -8 0 -16 -7 -19 -15 -4 -8 -12 -15
-20 -15 -8 0 -14 -4 -14 -9 0 -9 -124 -111 -135 -111 -3 0 -24 -12 -47 -26
l-42 -27 37 43 c39 45 43 55 28 64 -5 3 -14 -8 -21 -24 -20 -48 -96 -109 -193
-155 -51 -24 -103 -46 -117 -50 -22 -7 -23 -6 -11 8 7 9 18 14 25 10 8 -4 8
-3 0 6 -9 10 -20 6 -50 -14 l-38 -26 -14 26 c-11 22 -11 29 0 43 7 9 8 13 1 9
-7 -5 -9 0 -6 13 3 11 9 18 13 15 4 -2 5 7 2 20 -2 14 0 25 5 25 16 0 33 74
32 136 l-2 59 -7 -76 c-7 -70 -25 -127 -37 -116 -3 3 1 22 7 43 18 54 8 249
-14 293 -10 18 -20 30 -23 27 -3 -3 0 -12 7 -21 15 -18 15 -153 -1 -259 -10
-70 -19 -98 -19 -57 0 12 -4 20 -9 16 -5 -3 -4 7 4 22 13 26 19 99 16 187 -2
63 -9 39 -21 -73 -6 -57 -18 -121 -27 -143 -21 -53 -27 -42 -7 15 8 25 14 60
12 79 -3 32 -3 32 -21 -19 -21 -60 -32 -67 -33 -23 -1 17 2 30 6 30 4 0 10 7
14 15 3 9 0 15 -9 15 -8 0 -15 -6 -15 -14 0 -8 -14 -29 -32 -47 -18 -19 -31
-38 -29 -44 1 -5 -1 -7 -5 -3 -4 4 -12 4 -18 -1 -17 -13 -46 -21 -46 -13 0 4
21 32 47 61 32 37 40 50 24 41 -18 -9 -25 -9 -31 0 -5 8 -12 5 -24 -11 -13
-19 -18 -21 -28 -10 -9 9 -9 12 -1 7 7 -3 14 2 18 14 3 11 11 20 16 20 6 0 8
4 5 9 -4 5 3 7 14 4 25 -7 25 -2 0 27 -28 32 -25 43 8 36 17 -4 22 -3 14 2 -9
6 -11 18 -6 35 8 36 28 35 20 -1 -4 -18 -3 -22 3 -12 13 23 -5 264 -27 355
-11 44 -20 100 -21 125 0 24 -6 49 -12 55 -7 7 -10 -63 -7 -245 3 -245 -3
-320 -23 -289 -5 8 -9 31 -9 52 0 49 -11 47 -33 -7 -10 -24 -28 -52 -40 -62
-22 -19 -22 -19 -6 1 28 35 49 84 55 128 3 23 1 37 -3 31 -14 -20 -13 149 1
209 14 62 12 76 -6 26 -20 -58 -29 -8 -27 156 2 132 5 165 20 189 10 16 15 36
12 45 -5 13 -3 14 8 3 18 -16 32 -15 26 2 -4 10 -1 13 8 10 14 -6 62 51 57 68
-1 5 2 7 7 3 6 -3 21 10 33 29 13 20 25 36 28 36 3 0 15 -22 27 -48 l22 -47
-5 67 c-3 38 -1 76 4 85 8 14 12 12 26 -15 23 -44 28 -40 9 6 -22 52 -42 142
-32 142 5 0 14 -9 21 -20 7 -11 17 -20 21 -20 5 0 -1 14 -13 30 -12 17 -27 30
-35 30 -8 0 -11 7 -8 20 3 11 11 20 18 20 10 0 11 5 2 25 -7 13 -13 20 -15 15
-6 -16 -22 -12 -22 5 0 9 -10 15 -27 16 l-28 1 25 8 c23 7 23 8 3 9 -12 1 -24
7 -26 14 -3 6 -6 -58 -6 -143 -1 -178 0 -175 -99 -293 -74 -87 -102 -107 -73
-49 36 70 41 107 30 226 -11 115 -13 384 -3 410 4 11 0 13 -15 9 -33 -9 -25
18 16 53 40 33 39 60 -1 44 -21 -8 -24 -6 -21 13 1 12 10 36 19 52 20 37 20
64 2 134 -18 64 -20 67 -48 54 -50 -23 -114 -87 -146 -146 -18 -34 -30 -51
-26 -37 13 50 38 86 100 147 77 74 80 90 22 86 -41 -2 -41 -2 -13 7 47 16 114
20 121 8 5 -7 2 -8 -5 -3 -9 5 -11 -1 -7 -25 2 -17 7 -34 10 -37 8 -8 67 17
91 38 11 9 29 19 40 21 12 2 0 7 -27 12 -27 4 -48 12 -48 17 0 6 4 8 8 5 4 -2
14 -1 22 5 13 7 13 9 0 9 -12 0 -13 2 -1 9 23 14 69 -5 167 -70 93 -61 121
-85 112 -94 -3 -3 -26 4 -51 15 -60 26 -156 35 -231 21 -33 -6 -61 -13 -64
-15 -2 -3 -1 -14 3 -26 6 -18 12 -21 36 -16 16 3 78 11 137 17 99 11 110 10
152 -8 l45 -20 -71 5 c-70 4 -176 -8 -242 -29 -27 -9 -32 -14 -26 -32 11 -38
22 -42 54 -24 17 10 30 15 30 11 0 -3 7 -1 15 6 23 19 153 50 209 50 28 -1 62
-8 76 -16 14 -8 16 -12 5 -7 -11 4 -47 8 -81 8 -49 0 -83 -9 -172 -45 -99 -39
-111 -47 -106 -65 4 -11 8 -22 10 -24 4 -5 41 10 159 62 80 36 99 41 170 41
63 1 90 -4 130 -22 96 -44 174 -145 235 -303 24 -65 24 -59 1 -59 -11 0 -23
-5 -27 -12 -4 -7 -3 -8 5 -4 7 5 24 5 38 2 20 -6 24 -11 19 -31 -3 -13 -2 -27
4 -30 5 -3 10 -14 10 -24 0 -23 35 -68 43 -55 3 5 -3 34 -13 64 -13 40 -15 50
-4 35 18 -25 34 -84 29 -110 -2 -11 -4 -27 -4 -35 -1 -13 -3 -13 -10 0 -6 8
-7 18 -4 24 3 5 1 6 -5 2 -5 -3 -13 0 -15 6 -4 8 -6 7 -6 -4 -1 -9 5 -19 12
-21 9 -4 8 -8 -3 -16 -10 -7 -11 -11 -3 -11 7 0 10 -6 7 -13 -2 -7 4 -24 16
-37 23 -27 23 -25 9 -52 -9 -16 -7 -26 11 -50 12 -16 19 -36 16 -44 -3 -8 -1
-14 4 -14 6 0 10 -9 10 -20 0 -11 -5 -20 -11 -20 -7 0 -8 -7 -4 -17 4 -10 8
-24 8 -31 0 -8 11 -19 24 -25 13 -5 23 -18 23 -28 0 -9 9 -36 20 -60 23 -52
25 -107 6 -154 -13 -29 -12 -34 1 -39 8 -3 20 -3 26 1 7 3 9 3 5 -2 -4 -4 6
-18 21 -31 42 -35 55 -74 43 -128 -5 -25 -6 -43 -1 -40 5 3 11 -1 13 -8 2 -7
12 -37 21 -67 9 -30 18 -72 19 -95 2 -23 7 -65 11 -94 l8 -52 391 0 c346 1
389 2 372 15 -11 8 -16 15 -10 15 5 0 17 -7 26 -14 17 -12 17 -14 0 -28 -29
-26 -74 -45 -135 -58 -36 -7 -55 -15 -51 -22 5 -7 2 -8 -5 -4 -7 5 -58 -7
-114 -25 -78 -24 -97 -34 -82 -40 33 -13 107 -10 160 7 73 22 211 29 229 11
16 -15 134 -31 160 -21 9 3 16 2 16 -4 0 -6 15 -10 33 -9 27 2 32 5 30 25 -2
13 1 21 6 18 17 -11 20 24 6 59 -12 27 -13 45 -5 80 19 84 13 165 -12 165 -5
0 -18 -10 -28 -23 -10 -12 -22 -19 -26 -15 -4 4 -1 14 5 22 7 8 9 21 5 27 -5
9 -2 10 10 6 12 -5 16 -3 13 5 -2 7 -12 12 -22 10 -10 -2 -14 1 -10 7 11 19
35 12 45 -11 8 -21 9 -22 10 -3 l1 20 9 -20 c7 -16 9 -13 15 23 4 23 11 42 15
42 4 0 15 -25 25 -55 9 -30 19 -55 22 -55 2 0 1 21 -3 46 -6 45 -6 46 15 35
21 -12 21 -10 17 34 -5 55 8 59 24 8 12 -37 81 -112 103 -114 7 0 39 -13 72
-28 43 -21 71 -27 98 -24 32 3 38 1 46 -20 9 -24 40 -33 42 -13 0 6 4 2 9 -9
7 -19 8 -18 15 7 5 20 15 28 43 33 20 4 39 11 42 15 3 5 27 15 52 21 42 12 49
11 67 -5 17 -16 23 -16 48 -4 19 9 28 21 27 36 0 15 5 22 17 22 20 0 62 48 53
61 -3 5 -18 8 -32 7 -24 -3 -27 1 -27 26 0 18 7 33 20 40 10 6 25 17 33 24 7
7 18 10 23 6 6 -3 15 -2 22 3 7 5 32 15 57 22 51 15 90 46 90 72 0 10 7 25 17
34 11 11 13 19 5 24 -16 10 -3 94 14 87 9 -3 15 7 20 32 3 20 12 47 20 59 17
28 18 75 2 92 -7 8 -8 11 -2 8 20 -12 52 36 58 88 12 102 12 117 -1 133 -17
23 -16 57 2 72 8 7 15 21 15 31 0 11 3 19 8 19 4 0 7 52 7 116 0 108 2 117 23
134 12 10 22 25 22 34 0 9 5 16 10 16 6 0 10 7 10 15 0 8 3 15 8 15 10 0 44
61 37 68 -3 3 -14 -3 -24 -12 -11 -10 -24 -15 -30 -12 -5 4 -15 -2 -21 -11 -9
-14 -10 -10 -5 22 4 23 17 50 31 63 24 23 32 52 15 52 -5 0 -12 -7 -15 -16 -4
-11 -13 -14 -27 -11 -19 5 -21 2 -16 -26 3 -18 3 -26 0 -19 -2 6 -11 12 -19
12 -18 0 -18 29 0 49 7 9 17 27 21 41 7 22 6 23 -9 11 -9 -7 -16 -20 -16 -27
0 -8 -6 -14 -14 -14 -8 0 -17 -8 -21 -19 -7 -23 -43 -56 -51 -48 -4 3 17 43
45 89 28 46 51 87 51 92 0 16 -30 -17 -46 -50 -16 -34 -106 -124 -124 -124
-19 0 -11 69 10 82 11 7 20 17 20 23 0 5 13 25 29 44 16 18 34 50 40 70 7 20
15 43 18 51 3 8 -9 0 -25 -18 -17 -18 -29 -39 -26 -46 3 -8 1 -17 -5 -21 -26
-15 -2 105 33 173 9 17 16 41 16 53 0 21 -1 22 -20 4 -11 -10 -22 -26 -25 -36
-3 -10 -20 -25 -38 -34 -29 -15 -33 -15 -44 2 -18 24 -17 26 16 41 39 17 47
40 17 48 -23 6 -24 9 -23 96 1 50 3 83 5 74 4 -21 32 -21 32 0 0 8 4 13 8 10
4 -2 6 11 4 31 -3 21 -7 30 -12 23 -8 -13 -40 24 -40 47 0 7 -9 13 -20 13 -11
0 -20 -7 -20 -15 0 -8 -6 -15 -14 -15 -8 0 -16 16 -20 40 -6 40 -25 56 -27 23
0 -15 -2 -15 -9 2 -5 11 -9 14 -9 8 -1 -16 -37 -53 -51 -53 -6 0 -10 8 -10 19
0 10 -6 31 -14 45 -14 28 -11 66 6 66 5 0 2 7 -7 16 -19 19 -32 10 -37 -25 -1
-14 -8 -26 -15 -28 -8 -3 -11 18 -12 67 0 39 -5 79 -10 88 -9 15 -10 14 -11
-5 0 -13 -5 -23 -11 -23 -8 0 -8 9 -3 28 5 15 8 52 6 82 -2 60 -2 61 44 -27
10 -18 24 -33 31 -33 17 0 17 -26 1 -36 -9 -6 -5 -10 12 -15 46 -13 60 -10 60
12 0 16 -5 20 -20 16 -29 -8 -34 9 -20 68 12 49 11 55 -6 72 -16 16 -17 16
-11 1 3 -10 2 -20 -3 -23 -6 -4 -10 -2 -10 3 0 5 -11 15 -25 22 -25 13 -61 70
-45 70 14 0 21 32 9 46 -8 10 -8 22 -1 44 7 18 7 32 1 35 -5 4 -9 0 -9 -8 0
-8 -7 -17 -15 -21 -8 -3 -20 -17 -25 -32 -6 -15 -12 -25 -13 -23 -1 2 -11 15
-22 29 -11 14 -16 22 -11 17 11 -8 39 50 30 64 -3 5 3 9 14 9 29 0 62 37 62
70 0 17 -4 30 -10 30 -5 0 -10 -4 -10 -10 0 -5 -15 -10 -32 -10 -28 -1 -30 -2
-15 -11 10 -6 25 -8 33 -5 8 3 14 -1 14 -10 0 -10 -6 -13 -19 -9 -10 3 -30 1
-45 -4 -22 -9 -26 -8 -26 8 0 26 -10 51 -21 51 -5 0 -9 -8 -9 -18 0 -22 -26
-47 -57 -55 -16 -3 -23 -1 -23 9 0 8 5 14 11 14 7 0 8 11 4 30 -5 23 -3 30 9
30 9 0 16 5 16 11 0 8 5 7 15 -1 19 -16 32 -6 17 13 -7 7 -9 36 -7 68 5 53 4
55 -25 66 -17 6 -30 16 -30 22 0 13 26 15 34 3 3 -4 26 -6 53 -3 42 5 48 9 51
31 2 21 -3 27 -30 35 -31 10 -33 13 -36 64 -2 35 -9 60 -23 74 -10 11 -19 25
-19 29 0 5 -5 6 -10 3 -6 -3 -10 -15 -10 -26 0 -10 -7 -19 -15 -19 -20 0 -20
44 0 60 14 11 13 14 -7 24 -12 6 -28 22 -34 35 -9 17 -14 19 -20 10 -4 -7 -3
-14 4 -17 7 -2 12 -10 12 -18 0 -8 7 -14 15 -14 21 0 19 -18 -2 -22 -11 -2
-32 10 -50 30 -18 18 -37 30 -43 27 -5 -3 -15 -3 -21 1 -7 4 -1 15 17 29 34
27 27 55 -14 55 -43 0 -78 49 -99 139 -3 13 -14 26 -24 28 -11 3 -19 9 -19 14
0 5 -17 9 -37 9 -56 0 -111 66 -99 116 6 24 -9 35 -16 12 -6 -17 -28 0 -28 21
0 10 -7 24 -15 31 -8 7 -15 21 -15 31 0 20 -15 25 -25 9 -9 -15 -38 -12 -32 3
2 6 -7 24 -21 40 -21 22 -23 30 -13 40 10 9 15 8 25 -6 11 -15 15 -15 19 -3 3
8 15 20 26 26 17 8 21 8 21 -4 0 -8 -8 -17 -17 -19 -11 -3 -7 -5 10 -6 17 -1
27 -7 27 -16 0 -8 7 -15 15 -15 19 0 19 29 0 54 -8 11 -15 30 -15 42 0 12 -10
28 -22 36 -18 12 -20 18 -12 29 14 17 24 79 13 79 -19 0 -38 -13 -33 -22 7
-11 -13 -28 -33 -28 -7 0 -13 8 -13 18 0 15 -6 17 -36 14 -28 -3 -35 -1 -32 9
3 8 18 15 35 17 24 2 34 10 42 33 8 23 7 29 -5 29 -7 0 -14 -7 -14 -15 0 -19
-39 -20 -46 0 -3 8 1 29 10 46 21 41 20 51 -2 40 -9 -5 -25 -12 -34 -15 -11
-3 -19 -16 -19 -33 -2 -25 -2 -26 -6 -4 -4 20 -9 23 -37 18 -18 -3 -38 -2 -45
3 -19 11 -9 45 14 45 12 0 22 9 26 25 11 38 10 100 -1 100 -5 0 -15 10 -21 22
-9 18 -8 24 6 34 16 12 15 15 -6 43 -13 17 -26 31 -31 31 -4 0 -8 27 -8 60 0
56 -1 59 -19 49 -10 -7 -26 -9 -35 -6 -17 7 -23 47 -6 47 6 0 10 5 10 10 0 6
-3 9 -7 9 -26 -4 -33 3 -27 25 3 13 1 27 -5 30 -5 4 -8 13 -5 21 3 8 -5 25
-18 38 -26 26 -54 108 -49 145 1 12 -2 22 -7 22 -19 0 -19 40 0 80 11 22 24
40 29 40 5 0 9 7 9 15 0 8 -6 12 -14 9 -14 -5 -76 50 -76 67 0 4 -10 9 -22 11
-15 2 -22 9 -22 21 1 9 -5 17 -13 17 -8 0 -11 -4 -8 -10 4 -6 -7 -10 -24 -10
-17 0 -31 5 -31 10 0 6 -11 8 -25 6 -23 -4 -25 -2 -25 33 0 31 -4 40 -21 44
-16 4 -20 11 -15 24 4 12 -1 9 -14 -7 -11 -14 -20 -32 -21 -40 0 -8 -2 -28 -3
-43 -1 -16 2 -31 6 -33 4 -3 8 5 8 18 0 14 6 33 14 43 12 17 14 14 26 -33 9
-39 22 -62 51 -89 44 -42 47 -49 21 -57 -16 -6 -52 -68 -52 -92 0 -5 -4 -15
-9 -23 -8 -12 -11 -12 -23 0 -8 8 -19 23 -26 34 -6 11 -12 14 -12 8 0 -23 -26
-14 -53 18 -15 18 -28 26 -32 20 -3 -6 -1 -11 5 -11 6 0 8 -4 5 -10 -3 -5 0
-10 8 -10 16 0 31 -45 21 -61 -9 -16 5 -61 17 -53 6 3 22 1 35 -6 20 -11 22
-16 11 -28 -10 -12 -9 -14 2 -11 14 5 81 -53 81 -70 0 -5 13 -11 29 -13 23 -3
32 1 41 18 12 22 12 22 32 2 17 -17 18 -24 8 -48 -7 -16 -9 -33 -6 -39 4 -6 9
-26 11 -45 4 -28 2 -34 -10 -30 -8 4 -15 17 -15 31 0 24 -40 73 -60 73 -6 0
-8 -11 -4 -27 10 -41 14 -45 30 -32 11 9 14 8 14 -8 0 -10 5 -24 12 -31 9 -10
8 -16 -5 -29 -16 -16 -17 -16 -17 4 0 38 -18 34 -25 -4 -6 -33 -36 -89 -56
-103 -4 -3 -17 -25 -30 -50 -25 -50 -54 -82 -84 -95 -19 -8 -19 -8 -2 -12 10
-3 27 3 38 12 17 16 19 16 25 2 4 -11 -5 -28 -25 -48 -73 -73 -96 -174 -48
-210 4 -3 19 -38 32 -78 27 -78 32 -160 13 -179 -7 -7 -9 -12 -5 -12 4 0 3 -9
-3 -21 -9 -16 -7 -32 10 -77 34 -89 54 -132 62 -132 4 0 20 -19 35 -42 15 -24
30 -45 33 -48 29 -29 40 -109 18 -127 -7 -6 -25 -13 -40 -17 -16 -3 -28 -10
-28 -15 0 -5 -13 -12 -29 -16 -16 -3 -37 -15 -47 -26 -9 -10 -23 -19 -31 -19
-8 0 -28 -7 -44 -16 -34 -17 -34 -17 -43 13 -5 15 -2 23 11 27 10 4 31 18 46
32 l29 25 -16 46 c-20 58 -20 72 -1 79 15 6 48 -19 39 -29 -3 -3 1 -25 9 -49
13 -38 18 -43 42 -40 50 7 81 61 56 101 -6 9 -11 10 -15 2 -11 -17 -34 -13
-41 8 -10 31 -17 65 -18 84 -1 9 -8 17 -15 17 -11 0 -13 8 -9 30 4 17 2 30 -3
30 -6 0 -10 -4 -10 -10 0 -5 -6 -10 -14 -10 -11 0 -13 9 -9 34 6 38 -15 62
-24 27 -6 -23 -23 -29 -23 -8 0 9 -2 9 -9 -1 -7 -11 -9 -11 -14 2 -4 10 -1 16
7 16 8 0 17 7 20 16 8 22 8 54 -1 54 -14 0 -13 73 1 89 7 9 16 28 20 43 5 22
2 27 -16 30 -24 3 -38 28 -15 28 9 0 17 -5 19 -12 3 -7 7 -8 10 -3 9 15 -9 55
-28 62 -9 3 -20 0 -24 -8 -12 -19 -23 -5 -16 19 8 24 46 37 46 16 0 -8 6 -14
13 -14 8 0 18 -10 24 -22 6 -14 12 -18 16 -10 4 6 -7 27 -24 47 -25 28 -37 35
-56 30 -13 -3 -23 -1 -23 5 0 6 4 9 9 5 5 -3 12 -1 15 4 3 5 -2 12 -12 16 -11
4 -22 -1 -31 -14 -18 -28 -33 -27 -30 2 2 12 -1 28 -5 36 -7 11 -5 13 10 9 55
-16 53 -21 38 80 -6 38 -4 42 12 35 18 -6 18 -6 2 14 -10 11 -18 30 -18 43 0
19 -2 21 -16 9 -13 -10 -21 -9 -46 6 -31 18 -31 18 -25 -4 5 -19 2 -21 -16
-15 -19 6 -20 5 -8 -9 7 -9 18 -14 25 -10 6 4 5 -1 -3 -11 -13 -15 -15 -16
-23 -2 -5 9 -16 16 -23 16 -8 0 -15 4 -15 9 0 5 -3 17 -6 25 -5 12 -1 16 17
14 16 -2 24 3 27 17 2 11 11 26 20 33 13 10 13 12 1 13 -8 1 -20 1 -26 0 -7
-1 -13 3 -13 9 0 5 -7 10 -15 10 -8 0 -15 3 -15 8 -1 4 -21 29 -45 56 -25 28
-46 55 -46 60 -1 6 -3 25 -4 41 -1 17 -5 42 -8 58 -4 18 -2 25 5 21 7 -5 9 0
6 14 -4 12 -2 22 3 22 5 0 9 7 9 15 0 8 6 15 14 15 8 0 18 5 22 12 5 8 2 9 -9
5 -10 -3 -17 -4 -17 -1 0 10 28 34 39 34 6 0 11 5 11 12 0 6 3 9 6 6 3 -4 18
7 33 23 16 16 34 29 42 29 22 1 49 25 49 45 0 11 5 15 14 12 20 -8 49 26 35
40 -14 14 -36 52 -45 75 -3 9 -17 19 -30 22 -13 4 -24 11 -24 16 0 6 -7 10
-15 10 -9 0 -15 9 -15 21 0 18 2 19 15 5 8 -8 24 -18 35 -21 11 -3 20 -11 20
-16 0 -5 7 -9 15 -9 8 0 15 -5 15 -12 0 -6 3 -8 7 -5 8 9 11 77 2 72 -3 -3
-17 7 -29 21 -22 22 -23 26 -8 41 19 18 53 10 45 -11 -7 -17 20 -56 38 -56 18
0 45 28 45 47 0 8 -13 20 -28 25 -16 6 -38 27 -51 46 -22 33 -22 34 -4 56 11
11 30 43 43 70 16 31 35 53 52 61 16 6 25 15 21 19 -5 5 2 5 14 2 12 -4 24 -2
28 4 3 5 5 10 3 10 -2 0 -18 4 -36 9 -20 6 -30 6 -27 0 4 -5 -1 -9 -9 -9 -9 0
-16 -5 -16 -10 0 -6 -6 -10 -12 -8 -17 3 -68 -31 -68 -46 0 -7 -10 -23 -22
-36 -13 -14 -23 -29 -23 -35 0 -5 -8 -11 -19 -13 -13 -3 -16 0 -10 9 11 18 13
49 3 49 -4 0 -10 -6 -12 -12 -4 -10 -6 -10 -6 0 -1 19 -21 14 -21 -5 0 -16 -2
-16 -15 -2 -16 15 -11 49 6 49 10 0 12 40 3 64 -3 9 -11 16 -18 16 -6 0 -12 8
-13 18 -3 41 -30 129 -43 142 -3 3 -5 10 -6 15 -1 28 -17 64 -30 69 -8 3 -13
2 -10 -2 2 -4 -10 -14 -27 -21 -18 -7 -40 -17 -49 -22 -23 -12 -23 3 -2 37 9
13 15 26 13 28 -2 2 -19 13 -37 24 l-33 19 33 8 c22 5 27 9 16 12 -10 2 -18
11 -18 19 0 8 -14 20 -30 25 -17 6 -30 15 -30 20 0 12 17 11 25 -1 4 -6 23 -7
46 -4 47 8 89 -10 89 -37 0 -12 5 -16 15 -13 9 4 15 0 15 -10 0 -9 7 -16 15
-16 18 0 18 13 1 63 -11 31 -11 37 0 37 24 0 63 -49 69 -88 9 -50 13 -61 14
-35 1 33 21 39 22 6 1 -17 3 -21 6 -10 5 20 14 22 30 6 8 -8 13 -8 17 0 11 17
-4 32 -24 26 -15 -5 -24 3 -41 36 -21 43 -42 69 -54 69 -3 0 -18 14 -32 30
-29 35 -200 123 -217 113 -7 -5 -4 -9 8 -11 11 -2 38 -16 59 -31 22 -14 49
-32 61 -38 32 -19 0 -15 -47 6 -23 10 -71 31 -107 46 -36 16 -72 35 -80 42
-13 13 -10 14 24 7 26 -4 37 -3 32 4 -3 6 -24 13 -46 17 -45 8 -56 18 -37 33
15 12 180 -39 209 -65 9 -8 23 -13 30 -11 17 6 -129 78 -159 78 -14 0 -22 4
-18 10 4 6 3 9 -2 8 -4 -1 -17 3 -29 9 -59 33 -331 60 -356 35 -7 -7 -19 -12
-28 -12 -20 0 -152 -82 -212 -132 -51 -41 -162 -108 -181 -108 -12 0 92 99
105 100 4 0 26 18 50 40 24 22 48 40 54 40 7 0 14 6 17 14 7 16 63 46 88 46
10 0 24 7 33 15 8 8 22 12 30 9 9 -3 16 -2 16 3 0 19 58 41 125 47 38 4 75 11
81 17 8 7 34 5 79 -6 72 -16 117 -12 108 11 -6 17 -97 46 -118 37 -9 -3 -27 3
-43 13 -59 40 -78 46 -149 45 -40 0 -73 3 -73 7 0 4 -21 5 -47 4 -251 -18
-278 -18 -293 -5 -13 13 -13 15 3 24 30 18 18 27 -25 18 -58 -11 -78 -11 -78
1 0 6 10 10 22 10 17 0 19 3 10 12 -16 16 -92 -18 -178 -81 -39 -28 -73 -51
-77 -51 -3 0 -36 -30 -71 -67 -59 -61 -66 -65 -66 -43 0 19 -2 22 -10 10 -5
-8 -13 -11 -17 -6 -9 9 85 100 186 179 35 28 59 53 53 55 -6 2 -19 -1 -29 -6
-10 -6 -40 -13 -68 -16 -27 -4 -66 -11 -85 -16 -66 -16 -146 -30 -182 -32 -21
-1 -39 -7 -42 -15 -3 -7 -16 -13 -30 -13 -14 0 -31 -7 -40 -15 -8 -8 -23 -15
-33 -15 -10 -1 -29 -7 -43 -15 -28 -16 -66 -21 -42 -6 11 6 9 9 -7 14 -11 2
-28 -1 -38 -9 -10 -7 -26 -14 -35 -14 -10 0 -18 -4 -18 -10 0 -5 -9 -10 -19
-10 -10 0 -29 -9 -42 -19 -18 -14 -28 -17 -43 -9 -12 6 -16 6 -12 0 3 -5 -9
-13 -27 -16 -42 -8 -108 -41 -99 -50 3 -4 0 -4 -9 -1 -8 3 -35 -7 -59 -22 -25
-16 -57 -34 -72 -42 -15 -8 -25 -19 -21 -24 3 -6 2 -7 -4 -4 -10 6 -93 -28
-93 -39 0 -3 5 -2 12 2 7 4 8 3 4 -5 -4 -6 -12 -9 -17 -6 -5 4 -16 -1 -25 -9
-9 -9 -19 -14 -24 -11 -5 3 -10 2 -12 -2 -4 -11 -115 -83 -126 -83 -8 0 -26
-14 -84 -65 -10 -8 -18 -12 -18 -7 0 4 -5 -1 -11 -11 -6 -9 -14 -15 -19 -12
-4 3 -24 -9 -43 -26 -19 -17 -39 -32 -43 -33 -4 0 -22 -14 -40 -31 -18 -16
-45 -40 -61 -52 -79 -62 -132 -109 -132 -118 -1 -12 -41 -49 -41 -38 0 4 -18
-11 -40 -33 -22 -21 -40 -45 -40 -52 0 -7 -4 -10 -10 -7 -5 3 -23 -13 -40 -36
-16 -23 -30 -39 -30 -34 0 8 -14 -7 -149 -155 -147 -161 -228 -264 -223 -282
1 -5 -2 -7 -8 -3 -5 3 -10 2 -10 -4 0 -5 -23 -41 -52 -78 -28 -37 -84 -119
-125 -182 -40 -63 -73 -110 -73 -105 0 12 122 200 203 314 144 200 339 424
552 634 450 442 1018 783 1670 1001 332 112 565 164 916 206 246 30 733 32
969 6 405 -46 727 -117 1080 -239 801 -276 1479 -746 2039 -1412 280 -333 519
-734 677 -1136 l33 -85 1 1823 0 1822 -5120 0 -5120 0 0 -5120z m4410 4540 c0
-5 -4 -10 -10 -10 -5 0 -10 5 -10 10 0 6 5 10 10 10 6 0 10 -4 10 -10z m-1230
-130 c0 -5 -2 -10 -4 -10 -3 0 -8 5 -11 10 -3 6 -1 10 4 10 6 0 11 -4 11 -10z
m1783 -434 c3 -7 0 -24 -7 -37 -9 -19 -19 -24 -48 -23 -20 0 -35 -3 -32 -8 3
-4 0 -8 -5 -8 -6 0 -11 7 -11 15 0 8 6 15 14 15 8 0 27 5 43 11 20 7 24 12 14
18 -16 10 -6 31 14 31 7 0 15 -6 18 -14z m497 -16 c0 -5 -6 -10 -12 -10 -8 -1
-6 -6 5 -14 23 -17 22 -26 -4 -26 -11 0 -17 5 -14 10 3 6 -1 10 -9 10 -26 0
-28 20 -4 29 31 13 38 13 38 1z m-480 -50 c0 -5 -4 -10 -10 -10 -5 0 -10 5
-10 10 0 6 5 10 10 10 6 0 10 -4 10 -10z m-833 -16 c-3 -3 -12 -4 -19 -1 -8 3
-5 6 6 6 11 1 17 -2 13 -5z m648 -43 c-9 -18 -11 -31 -5 -31 5 0 10 5 10 12 0
6 3 8 6 5 4 -4 1 -13 -6 -22 -15 -18 -55 -21 -44 -3 4 7 8 23 9 36 1 25 37 61
43 43 2 -5 -4 -23 -13 -40z m121 4 c-11 -8 -29 -15 -40 -15 -36 0 7 25 49 29
6 0 1 -6 -9 -14z m-72 -21 c9 -24 7 -28 -9 -14 -17 14 -20 30 -6 30 5 0 12 -7
15 -16z m-144 -14 c0 -5 -2 -10 -4 -10 -3 0 -8 5 -11 10 -3 6 -1 10 4 10 6 0
11 -4 11 -10z m120 -29 c0 -5 -7 -12 -16 -15 -14 -5 -15 -4 -4 9 14 17 20 19
20 6z m828 -13 c39 -7 50 -13 43 -21 -13 -17 -261 -2 -273 16 -6 9 -8 9 -8 0
0 -7 -7 -13 -15 -13 -8 0 -12 6 -9 14 10 25 142 27 262 4z m-1145 -66 c-5 -22
-23 -31 -23 -12 0 10 23 40 27 36 1 -1 0 -12 -4 -24z m1117 19 c14 -5 -18 -6
-70 -4 -52 3 -99 6 -105 8 -21 7 151 3 175 -4z m77 -27 c-3 -3 -12 -4 -19 -1
-8 3 -5 6 6 6 11 1 17 -2 13 -5z m309 -148 c9 -9 10 -17 4 -21 -5 -3 -10 -1
-10 4 0 6 -6 11 -14 11 -8 0 -18 5 -21 10 -10 15 25 12 41 -4z m-306 -72 c0
-2 -7 -4 -15 -4 -8 0 -15 4 -15 10 0 5 7 7 15 4 8 -4 15 -8 15 -10z m307 -176
c-3 -8 -6 -5 -6 6 -1 11 2 17 5 13 3 -3 4 -12 1 -19z m-418 -35 c2 -2 2 -5 -1
-8 -7 -7 -68 27 -68 38 0 6 29 -6 69 -30z m439 -63 c0 -9 -3 -7 -8 5 -5 11 -8
29 -8 40 0 16 2 15 8 -5 4 -14 8 -32 8 -40z m-374 -2 c20 -24 36 -52 36 -63 0
-15 -5 -12 -21 15 -12 19 -32 45 -45 57 -25 23 -30 33 -15 33 5 0 25 -19 45
-42z m3614 14 c4 -23 -4 -27 -27 -13 -17 11 -7 45 12 39 6 -3 13 -14 15 -26z
m-3300 -2 c-7 -11 -21 -20 -32 -20 -16 0 -16 2 5 20 31 25 42 25 27 0z m-368
-41 c0 -6 -4 -7 -10 -4 -5 3 -10 11 -10 16 0 6 5 7 10 4 6 -3 10 -11 10 -16z
m429 -35 c-12 -14 -61 -44 -74 -44 -3 0 -5 7 -5 16 0 8 5 12 10 9 6 -3 22 3
36 14 31 25 52 28 33 5z m-392 -14 c11 -16 10 -18 -1 -14 -15 6 -30 34 -18 34
4 0 13 -9 19 -20z m-24 -72 c10 -17 15 -33 13 -35 -7 -8 -56 48 -56 63 0 21
24 6 43 -28z m82 4 c-7 -8 -45 20 -39 29 4 6 13 3 24 -8 9 -10 16 -19 15 -21z
m67 -10 c-6 -2 -12 -8 -12 -13 0 -6 5 -7 11 -3 8 5 8 1 0 -14 -16 -30 -14 -34
10 -21 14 7 19 17 16 30 -6 21 18 27 26 7 4 -8 6 -7 6 4 1 9 -5 18 -11 20 -8
3 -4 9 10 17 20 10 22 9 22 -9 0 -12 12 -37 26 -56 l26 -34 -26 2 c-15 1 -26
9 -27 18 0 10 -3 9 -9 -5 -7 -18 -8 -19 -15 -2 -4 9 -11 17 -16 17 -14 0 -11
-14 9 -36 35 -38 84 -104 77 -104 -16 0 -45 22 -45 34 0 13 -27 31 -41 28 -4
-1 -10 10 -13 24 -5 17 -12 24 -21 20 -8 -3 -15 -1 -15 4 0 6 -7 10 -15 10
-19 0 -19 -14 -1 -32 19 -19 30 -58 17 -58 -6 0 -18 18 -27 40 -9 22 -20 40
-26 40 -5 0 -6 5 -3 10 4 6 10 8 14 5 12 -7 31 42 24 62 -5 12 -3 14 7 8 10
-6 12 -4 7 7 -9 26 7 32 18 7 7 -16 6 -24 -3 -27z m178 28 c0 -5 -7 -10 -16
-10 -8 0 -12 5 -9 10 3 6 10 10 16 10 5 0 9 -4 9 -10z m170 -10 c0 -11 -4 -20
-10 -20 -5 0 -10 9 -10 20 0 11 5 20 10 20 6 0 10 -9 10 -20z m-30 0 c0 -5 -7
-10 -16 -10 -8 0 -12 5 -9 10 3 6 10 10 16 10 5 0 9 -4 9 -10z m-360 -53 c0
-5 -4 -5 -10 -2 -5 3 -10 14 -10 23 0 15 2 15 10 2 5 -8 10 -19 10 -23z m-44
-51 c2 -14 0 -15 -12 -5 -17 14 -19 32 -2 27 6 -2 12 -12 14 -22z m242 -17
c12 -18 11 -20 -5 -17 -10 2 -19 11 -21 21 -5 23 10 21 26 -4z m142 1 c0 -5
-5 -10 -11 -10 -5 0 -7 5 -4 10 3 6 8 10 11 10 2 0 4 -4 4 -10z m68 -1 c-11
-6 -24 -6 -34 -1 -12 7 -8 9 18 10 26 1 30 -1 16 -9z m32 -18 c0 -12 -20 -25
-27 -18 -7 7 6 27 18 27 5 0 9 -4 9 -9z m-194 -36 c4 -9 19 -15 38 -16 26 0
28 -2 11 -9 -17 -7 -17 -9 -2 -9 16 -1 25 -21 9 -21 -15 0 -62 25 -62 33 0 4
-5 7 -11 7 -5 0 -7 -4 -4 -10 3 -5 2 -10 -3 -10 -5 0 -9 11 -9 25 0 27 24 35
33 10z m164 2 c0 -10 -39 -80 -40 -71 0 20 22 74 31 74 5 0 9 -1 9 -3z m-470
-32 c0 -8 -4 -15 -10 -15 -5 0 -10 7 -10 15 0 8 5 15 10 15 6 0 10 -7 10 -15z
m180 -48 c0 -20 -25 1 -28 24 -2 23 -2 23 13 5 8 -11 15 -24 15 -29z m80 33
c0 -5 -5 -10 -11 -10 -5 0 -7 5 -4 10 3 6 8 10 11 10 2 0 4 -4 4 -10z m655
-10 c3 -5 1 -10 -4 -10 -6 0 -11 5 -11 10 0 6 2 10 4 10 3 0 8 -4 11 -10z
m-625 -32 c13 -16 15 -27 8 -35 -6 -7 -7 -20 -4 -30 6 -15 4 -15 -14 2 -19 17
-19 19 -4 37 21 23 7 24 -18 1 -17 -15 -18 -15 -18 0 0 10 6 16 13 15 6 -2 11
5 11 15 -2 23 4 22 26 -5z m121 -39 c-27 -22 -45 -25 -39 -6 3 6 14 13 26 15
12 2 22 8 22 14 0 6 3 8 8 4 4 -4 -4 -16 -17 -27z m-178 -72 c3 -12 2 -38 -3
-57 -4 -19 -8 -28 -9 -19 -1 9 -8 30 -17 47 -18 37 -11 80 11 62 7 -6 15 -21
18 -33z m127 33 c0 -5 -4 -10 -9 -10 -16 0 -19 -38 -5 -59 11 -15 11 -22 3
-27 -8 -5 -9 -3 -4 6 6 10 4 12 -8 7 -8 -3 -20 0 -26 7 -11 13 -4 56 10 56 5
0 8 3 8 8 -3 16 2 22 16 22 8 0 15 -4 15 -10z m-76 -8 c2 -4 -4 -9 -15 -9 -10
-1 -19 2 -19 8 0 11 27 12 34 1z m594 -58 c4 -28 -26 -54 -38 -34 -5 8 -7 17
-4 21 2 4 0 10 -6 14 -17 10 0 26 23 23 13 -2 23 -11 25 -24z m-631 -36 c-3
-8 -6 -5 -6 6 -1 11 2 17 5 13 3 -3 4 -12 1 -19z m160 16 c-3 -3 -12 -4 -19
-1 -8 3 -5 6 6 6 11 1 17 -2 13 -5z m326 -9 c-3 -9 -8 -14 -10 -11 -3 3 -2 9
2 15 9 16 15 13 8 -4z m2 -39 c18 -13 18 -14 -8 -9 -15 3 -27 9 -27 14 0 13
13 11 35 -5z m-151 -11 c-4 -8 -8 -15 -10 -15 -2 0 -4 7 -4 15 0 8 4 15 10 15
5 0 7 -7 4 -15z m301 -36 c9 -28 15 -52 12 -55 -7 -8 -37 44 -44 76 -9 50 14
34 32 -21z m-672 21 c3 -11 1 -18 -4 -14 -5 3 -9 12 -9 20 0 20 7 17 13 -6z
m67 11 c1 9 6 7 16 -6 13 -17 13 -21 0 -30 -8 -6 -18 -24 -22 -39 -7 -31 -30
-32 -50 0 -12 18 -11 23 6 42 11 12 20 26 20 33 0 8 4 8 15 -1 12 -10 15 -10
15 1z m680 -61 c0 -10 -4 -22 -10 -25 -6 -4 -10 7 -10 25 0 18 4 29 10 25 6
-3 10 -15 10 -25z m-110 -30 c0 -6 4 -9 9 -6 5 3 11 -4 14 -15 5 -20 5 -20
-16 -2 -28 23 -37 35 -37 51 0 10 3 10 15 -2 8 -8 15 -20 15 -26z m-5630 -24
c0 -8 -5 -18 -11 -22 -14 -8 -33 11 -25 25 10 16 36 13 36 -3z m4987 -73 c-3
-10 -5 -4 -5 12 0 17 2 24 5 18 2 -7 2 -21 0 -30z m770 -85 c-3 -7 -5 -2 -5
12 0 14 2 19 5 13 2 -7 2 -19 0 -25z m-677 -48 c15 -28 1 -49 -17 -25 -15 22
-17 45 -3 45 5 0 14 -9 20 -20z m610 -96 c0 -14 -4 -23 -9 -20 -5 3 -11 -3
-14 -14 -3 -11 -11 -20 -17 -20 -8 0 -10 8 -6 23 3 12 6 27 6 34 0 6 8 14 18
16 9 3 18 5 20 6 1 0 2 -11 2 -25z m-4525 -86 c-19 -36 -41 -71 -49 -77 -8 -7
6 24 31 69 55 96 68 102 18 8z m4455 -2 c0 -3 -4 -8 -10 -11 -5 -3 -10 -1 -10
4 0 6 5 11 10 11 6 0 10 -2 10 -4z m-530 -36 c0 -11 -2 -20 -4 -20 -2 0 -6 9
-9 20 -3 11 -1 20 4 20 5 0 9 -9 9 -20z m30 0 c0 -5 -2 -10 -4 -10 -3 0 -8 5
-11 10 -3 6 -1 10 4 10 6 0 11 -4 11 -10z m-4050 -132 c-17 -35 -36 -67 -42
-73 -5 -5 7 25 28 67 21 43 40 76 42 73 2 -2 -10 -32 -28 -67z m-1170 52 c0
-5 -7 -10 -16 -10 -8 0 -12 5 -9 10 3 6 10 10 16 10 5 0 9 -4 9 -10z m5371
-116 c17 -21 3 -29 -26 -14 -19 10 -28 10 -38 1 -11 -9 -17 -8 -26 3 -10 11
-9 16 4 23 21 12 71 4 86 -13z m-181 -158 c0 -14 -4 -28 -10 -31 -6 -4 -10 7
-10 24 0 17 5 31 10 31 6 0 10 -11 10 -24z m60 -204 c0 -7 -4 -10 -10 -7 -5 3
-10 16 -10 28 0 18 2 19 10 7 5 -8 10 -21 10 -28z m265 18 c3 -5 1 -10 -4 -10
-6 0 -11 5 -11 10 0 6 2 10 4 10 3 0 8 -4 11 -10z m-35 -131 c-7 -11 -14 -18
-17 -15 -8 8 5 36 17 36 7 0 7 -6 0 -21z m-140 -64 c-14 -17 -40 -20 -40 -5 0
6 9 10 20 10 11 0 20 5 20 12 0 6 3 8 6 5 4 -4 1 -13 -6 -22z m443 -85 c-8
-17 -15 -30 -17 -30 -1 0 -3 14 -4 31 -3 39 6 53 23 39 11 -9 10 -16 -2 -40z
m-258 30 c-3 -5 -10 -10 -16 -10 -5 0 -9 5 -9 10 0 6 7 10 16 10 8 0 12 -4 9
-10z m-129 -95 c7 -29 1 -41 -15 -30 -14 8 -14 55 -1 55 5 0 12 -11 16 -25z
m249 -15 c3 -5 1 -10 -4 -10 -6 0 -11 5 -11 10 0 6 2 10 4 10 3 0 8 -4 11 -10z
m1060 -90 c3 -5 -1 -10 -10 -10 -9 0 -13 5 -10 10 3 6 8 10 10 10 2 0 7 -4 10
-10z m-798 -62 c15 -7 37 -21 47 -30 11 -10 23 -18 28 -18 4 0 8 -7 8 -15 0
-8 7 -15 15 -15 8 0 15 -4 15 -10 0 -5 6 -10 14 -10 8 0 19 -12 25 -27 6 -16
23 -44 37 -63 17 -24 24 -45 23 -70 -1 -19 1 -46 5 -59 5 -13 3 -49 -4 -80
-11 -55 -11 -59 14 -96 33 -48 33 -80 0 -109 -21 -17 -28 -34 -32 -75 -2 -29
-8 -49 -13 -44 -5 5 -2 49 6 98 17 107 17 106 5 125 -9 13 -11 13 -20 0 -8
-12 -10 -11 -10 7 0 12 -6 23 -12 26 -9 3 -7 9 6 19 23 18 37 118 16 118 -9 0
-11 10 -6 31 6 33 -11 109 -26 109 -4 0 -8 7 -8 17 0 14 -2 14 -21 -3 -21 -19
-21 -19 -19 1 6 50 -10 71 -39 55 -21 -11 -22 -10 -15 24 5 29 3 36 -10 36 -9
0 -19 7 -22 15 -4 8 -12 15 -19 15 -6 0 -20 9 -30 20 -16 18 -16 20 -2 20 9 0
29 -6 44 -12z m-67 -58 c0 -5 -2 -10 -4 -10 -3 0 -8 5 -11 10 -3 6 -1 10 4 10
6 0 11 -4 11 -10z m933 -137 c-7 -2 -19 -2 -25 0 -7 3 -2 5 12 5 14 0 19 -2
13 -5z m-1000 -133 c-6 -22 -21 -35 -30 -27 -2 3 -2 15 2 26 8 28 35 28 28 1z
m297 -229 c0 -11 -4 -22 -9 -25 -11 -7 -23 22 -15 35 9 16 24 10 24 -10z m895
-43 c-9 -40 -26 -68 -42 -68 -7 0 -4 17 10 50 24 56 42 67 32 18z m-2750 -368
c26 -13 63 -36 81 -53 36 -31 45 -27 17 7 l-18 21 23 -19 c12 -11 20 -26 18
-33 -3 -7 6 -32 19 -55 14 -24 25 -37 25 -30 0 8 -9 28 -21 45 l-21 32 27 -30
c17 -20 24 -38 22 -53 -5 -26 13 -82 26 -82 4 0 3 9 -2 19 -8 14 -7 22 4 31
12 10 15 9 15 -9 0 -12 7 -35 15 -51 13 -26 13 -30 -1 -44 -12 -12 -20 -13
-35 -6 -17 9 -19 7 -19 -18 0 -75 -66 -188 -104 -179 -42 10 -121 42 -128 52
-8 11 0 27 12 20 15 -9 27 20 34 85 4 35 12 72 17 81 5 11 5 19 -1 21 -5 2 -6
18 -1 39 5 21 5 43 0 50 -5 8 -9 24 -9 36 0 13 -23 47 -57 83 -49 52 -62 60
-93 60 -79 0 -170 -50 -222 -122 -12 -17 -16 -28 -9 -24 10 7 11 3 6 -15 -7
-21 -6 -22 8 -11 8 7 13 20 10 30 -2 10 8 29 28 47 l31 30 -21 -42 c-13 -26
-17 -44 -11 -48 6 -4 8 -11 5 -16 -4 -5 -8 -29 -10 -53 -3 -34 0 -44 10 -40 7
3 16 1 20 -5 3 -6 1 -11 -5 -11 -7 0 -10 -18 -8 -50 2 -32 8 -50 16 -50 11 0
17 -20 13 -43 -1 -4 13 -14 31 -22 18 -8 26 -14 18 -15 -11 0 -12 -2 -3 -8 7
-4 -14 -17 -55 -31 l-66 -23 -28 30 c-34 39 -48 87 -55 182 -5 64 -2 84 17
128 28 66 111 143 183 171 71 29 183 24 252 -9z m-489 -246 c-11 -29 -15 -33
-15 -16 -1 20 19 65 26 58 2 -1 -3 -20 -11 -42z m21 -6 c-3 -8 -6 -5 -6 6 -1
11 2 17 5 13 3 -3 4 -12 1 -19z m743 -33 c0 -23 -3 -27 -10 -15 -5 8 -10 29
-10 45 0 23 3 27 10 15 5 -8 10 -28 10 -45z m-791 3 c0 -28 -2 -30 -9 -13 -12
28 -12 45 0 45 6 0 10 -15 9 -32z m3621 -128 c0 -5 -4 -10 -10 -10 -5 0 -10 5
-10 10 0 6 5 10 10 10 6 0 10 -4 10 -10z m-2947 -115 c-3 -9 -8 -14 -10 -11
-3 3 -2 9 2 15 9 16 15 13 8 -4z m-306 -51 c-3 -3 -12 -4 -19 -1 -8 3 -5 6 6
6 11 1 17 -2 13 -5z m-114 -51 c-7 -2 -21 -2 -30 0 -10 3 -4 5 12 5 17 0 24
-2 18 -5z m-756 -270 c-3 -10 -5 -2 -5 17 0 19 2 27 5 18 2 -10 2 -26 0 -35z
m7 -89 c3 -8 2 -12 -4 -9 -6 3 -10 10 -10 16 0 14 7 11 14 -7z m1 -63 c5 -9
-67 -91 -80 -91 -3 0 1 14 10 30 9 17 20 30 25 30 5 0 12 9 15 20 7 21 20 26
30 11z m-90 -121 c4 -6 12 -7 18 -3 7 4 6 0 -2 -10 -9 -11 -10 -17 -2 -17 6 0
11 -7 11 -15 0 -8 -4 -15 -9 -15 -6 0 -10 -8 -10 -17 0 -10 -1 -44 -1 -75 0
-59 -13 -77 -24 -35 -3 12 -6 50 -6 85 0 40 -4 61 -10 57 -13 -8 -13 -2 2 30
12 27 23 32 33 15z m4165 -60 c0 -5 -4 -10 -10 -10 -5 0 -10 5 -10 10 0 6 5
10 10 10 6 0 10 -4 10 -10z m190 -90 c0 -28 -13 -40 -24 -22 -7 12 5 52 15 52
5 0 9 -13 9 -30z m-4351 -84 c11 17 11 16 8 -11 -2 -16 -2 -24 0 -17 6 17 43
15 43 -2 0 -7 -7 -19 -15 -26 -8 -7 -15 -20 -15 -29 -1 -22 -25 -52 -35 -43
-5 4 -5 1 -1 -6 10 -16 -41 -95 -54 -87 -15 10 -12 35 14 98 23 55 24 62 10
105 -22 73 -17 94 10 43 21 -41 24 -43 35 -25z m-780 -219 c258 -154 242 -583
-26 -675 -25 -8 -32 -8 -30 1 1 7 7 15 12 20 6 4 5 10 -3 16 -11 7 -10 15 3
47 9 21 18 69 20 106 4 59 1 71 -16 87 -12 11 -18 25 -14 31 6 9 9 9 15 0 5
-7 13 -9 21 -5 9 6 7 10 -8 16 -20 7 -39 49 -22 49 5 0 9 -4 9 -9 0 -19 30
-20 40 -1 7 14 6 31 -4 60 -7 22 -10 42 -6 45 5 3 11 -1 13 -7 3 -7 6 -3 6 10
1 13 -3 20 -9 17 -5 -3 -10 2 -10 12 0 11 -6 28 -14 38 -8 11 -11 26 -8 33 3
8 -2 19 -12 24 -9 5 -14 13 -11 18 3 4 -11 11 -30 14 -23 5 -32 11 -29 20 3 7
-2 16 -11 20 -10 3 -15 13 -12 20 7 18 -12 26 -66 27 l-42 2 40 6 c64 10 145
-7 204 -42z m4631 44 c0 -6 -4 -13 -10 -16 -5 -3 -10 1 -10 9 0 9 5 16 10 16
6 0 10 -4 10 -9z m-2789 -34 c-10 -9 -11 -8 -5 6 3 10 9 15 12 12 3 -3 0 -11
-7 -18z m3269 3 c0 -5 -4 -10 -10 -10 -5 0 -10 5 -10 10 0 6 5 10 10 10 6 0
10 -4 10 -10z m-130 -30 c0 -5 -4 -10 -10 -10 -5 0 -10 5 -10 10 0 6 5 10 10
10 6 0 10 -4 10 -10z m-4230 -10 c0 -5 -5 -10 -11 -10 -5 0 -7 5 -4 10 3 6 8
10 11 10 2 0 4 -4 4 -10z m4207 -52 c-3 -8 -6 -5 -6 6 -1 11 2 17 5 13 3 -3 4
-12 1 -19z m-7364 -211 c3 14 8 10 20 -17 15 -32 16 -33 17 -10 1 23 2 23 10
5 7 -16 9 -17 9 -3 1 9 5 20 11 23 7 4 7 -2 1 -18 -7 -19 -5 -39 10 -76 21
-56 24 -98 9 -121 -8 -12 -10 -10 -11 10 0 23 -1 23 -9 5 -8 -19 -9 -19 -9 2
-1 12 5 24 12 26 9 4 9 7 -1 15 -7 5 -23 39 -36 76 -14 40 -26 61 -29 52 -7
-18 18 -196 35 -246 6 -19 13 -48 14 -65 6 -51 37 -171 41 -158 3 7 0 43 -6
80 -6 37 -6 73 -2 81 9 16 11 9 26 -80 4 -24 11 -38 21 -38 17 0 36 -43 28
-65 -7 -17 -13 -18 -33 -6 -30 19 -42 1 -40 -58 2 -41 8 -62 23 -78 22 -24 42
-31 30 -11 -5 7 5 3 20 -10 31 -24 52 -28 58 -11 3 8 32 4 93 -14 90 -27 219
-46 314 -48 28 -1 49 -4 47 -8 -2 -3 16 -7 40 -7 24 -1 50 -7 58 -13 13 -11
13 -9 3 13 -6 13 -14 23 -16 20 -9 -8 -43 83 -56 149 -7 38 -15 71 -19 74 -3
3 -1 14 5 24 7 15 6 19 -5 19 -10 0 -13 10 -10 39 3 27 -1 45 -12 55 -14 15
-14 16 0 16 20 0 21 29 2 65 l-15 28 -6 -26 c-4 -14 -4 -31 1 -38 4 -7 3 -9
-4 -5 -7 4 -9 -11 -6 -51 4 -43 2 -55 -6 -47 -18 18 -33 95 -20 108 17 17 11
27 -10 16 -17 -9 -20 -8 -20 7 0 10 5 25 11 33 9 13 10 12 5 -2 -8 -27 3 -22
13 6 7 17 4 35 -14 72 -14 27 -25 55 -25 62 0 6 -5 12 -11 12 -10 0 -9 16 6
90 2 8 4 19 4 25 2 20 24 -16 42 -67 10 -29 18 -45 19 -35 0 23 30 56 31 35 0
-7 4 -5 8 5 5 14 12 2 30 -47 23 -66 42 -92 60 -82 5 4 14 -2 20 -11 8 -14 10
-15 11 -3 0 13 1 13 11 0 9 -12 10 -11 6 7 -3 13 0 26 5 30 16 9 4 -93 -17
-144 -20 -50 -32 -54 -38 -15 -2 15 -3 5 -2 -21 1 -26 -1 -50 -5 -52 -4 -3
-10 -23 -14 -46 -6 -40 -4 -44 44 -95 27 -29 50 -58 50 -64 0 -6 4 -8 10 -5 5
3 22 -12 37 -33 16 -22 35 -44 43 -50 13 -8 15 -3 14 24 -2 34 10 46 19 22 10
-24 7 16 -9 137 -8 65 -19 126 -24 136 -5 9 -9 45 -8 80 1 73 -10 146 -23 155
-16 10 -10 24 11 24 11 0 20 -5 20 -10 0 -6 10 -8 24 -4 27 6 92 -23 118 -55
10 -12 29 -21 42 -21 13 0 29 -6 36 -14 6 -8 19 -12 28 -9 9 3 14 3 10 -1 -3
-4 9 -39 28 -76 19 -38 34 -74 34 -79 0 -16 66 -17 141 -1 41 9 67 19 59 22
-10 4 -6 8 13 13 28 7 32 17 28 73 -2 22 1 32 10 30 8 -2 15 8 16 22 2 23 2
23 -7 5 -9 -17 -10 -16 -6 8 3 26 2 28 -12 13 -11 -11 -16 -35 -17 -74 0 -52
-7 -71 -27 -72 -5 0 -8 23 -8 50 0 28 4 50 9 50 5 0 14 15 22 33 7 17 19 36
26 40 7 4 13 15 13 22 0 25 19 17 35 -15 9 -17 40 -47 70 -66 35 -22 55 -42
55 -54 0 -10 5 -22 12 -26 8 -5 9 -2 5 9 -12 33 22 17 85 -38 35 -31 76 -61
92 -68 75 -31 225 -107 266 -134 25 -17 60 -35 79 -42 50 -16 988 -16 993 1 3
7 7 5 11 -6 4 -10 3 -15 -3 -11 -16 10 -12 -1 27 -86 44 -94 66 -103 79 -32 3
15 7 29 8 31 8 7 36 -12 36 -24 0 -8 4 -14 9 -14 5 0 12 -8 15 -18 10 -32 76
-90 119 -106 40 -14 33 -15 -133 -12 -96 2 -204 8 -240 14 -47 7 -83 6 -130
-3 -36 -7 -85 -13 -110 -13 -132 -1 -240 -42 -305 -114 -101 -112 -107 -121
-100 -147 16 -70 17 -157 1 -195 -18 -44 -19 -49 -7 -42 10 7 26 -229 18 -271
-3 -15 -12 -73 -21 -128 -9 -55 -18 -105 -20 -111 -5 -13 -634 -25 -706 -14
-41 7 -38 8 35 11 l80 3 -85 5 c-76 5 -81 7 -50 15 l35 9 -30 5 c-30 5 -30 5
-5 12 19 6 10 9 -35 11 -33 1 -67 2 -75 1 -43 -4 -40 12 5 23 l50 12 -56 0
c-64 0 -79 6 -79 32 0 16 -12 20 -76 26 -41 4 -74 9 -71 11 2 2 37 8 78 13
l74 8 -60 3 c-33 1 -52 4 -42 7 9 2 17 9 17 14 0 5 15 9 34 9 37 0 66 8 66 19
0 4 -32 5 -70 3 -69 -4 -82 2 -58 26 9 9 -2 12 -52 13 -36 1 -51 4 -35 6 105
12 120 16 100 23 -13 5 17 10 80 15 199 15 182 23 -52 24 -167 1 -253 5 -310
17 -43 9 -91 17 -106 20 -15 2 -37 9 -49 15 -17 9 -23 9 -26 0 -2 -6 -8 -9
-13 -5 -15 9 18 34 48 36 15 1 -3 4 -42 7 -38 3 -71 3 -73 -1 -6 -14 -32 -8
-32 6 0 19 -83 46 -142 46 -26 0 -48 4 -48 10 0 5 -22 12 -50 16 -54 7 -68 24
-20 24 17 0 30 5 30 10 0 6 -13 10 -30 10 -16 0 -30 4 -30 9 0 16 110 23 257
15 141 -7 146 -6 139 12 -6 15 -5 17 5 7 16 -16 43 -17 33 -2 -5 9 1 10 20 5
20 -5 26 -4 20 5 -5 9 -3 9 7 3 8 -5 88 -9 179 -10 91 -1 244 -4 340 -7 157
-6 172 -5 145 8 -16 8 -39 15 -50 16 -20 1 0 7 100 29 28 6 61 13 75 16 38 9
218 13 195 4 -15 -5 -8 -10 34 -19 30 -6 56 -9 59 -6 3 3 -1 5 -9 5 -9 1 -8 4
5 11 15 9 16 13 5 20 -8 5 -23 8 -34 8 -11 0 -14 -3 -7 -6 6 -2 12 -9 12 -15
0 -6 -8 -4 -17 5 -10 8 -31 17 -48 20 -16 3 9 4 57 3 47 0 84 3 81 7 -3 5 5 7
17 5 13 -2 25 2 27 9 5 14 -32 25 -92 27 -24 0 -41 5 -38 9 6 10 -42 -2 -92
-24 -22 -9 -69 -20 -105 -24 -86 -9 -120 -18 -215 -54 -79 -31 -127 -37 -175
-24 l-25 7 24 6 c14 3 27 12 29 20 4 12 2 13 -9 3 -7 -7 -20 -13 -28 -13 -13
0 -13 2 -3 9 8 4 -21 7 -66 7 -63 -1 -78 -4 -74 -15 4 -10 -2 -13 -26 -9 -17
2 -29 1 -26 -3 2 -4 0 -10 -6 -14 -5 -3 -10 -1 -10 4 0 6 -17 11 -38 11 -21 0
-47 6 -57 14 -10 7 -27 11 -37 8 -10 -2 -18 1 -18 7 0 6 5 11 11 11 16 0 0 20
-25 30 -20 8 -20 9 4 10 22 0 19 4 -25 32 -30 19 -45 33 -36 36 11 4 11 6 0
14 -11 7 -9 8 6 5 11 -2 19 -7 18 -13 -1 -5 14 -9 32 -10 30 0 32 1 17 13 -16
12 -15 12 3 7 16 -6 18 -5 8 7 -16 17 -78 15 -100 -3 -12 -9 -15 -10 -9 0 6
10 -2 11 -36 6 -24 -4 -45 -8 -46 -10 -5 -3 74 -61 91 -67 7 -2 9 -8 5 -12 -4
-4 -34 14 -67 39 -59 46 -59 46 -118 38 -98 -12 -286 -9 -290 6 -3 7 -21 12
-44 12 -22 0 -47 4 -57 10 -9 5 -44 17 -77 26 -56 16 -58 18 -30 24 l30 7 -37
7 c-23 5 -35 13 -32 20 6 15 61 19 69 5 9 -14 22 -11 22 6 0 8 -4 12 -8 9 -4
-2 -11 1 -15 7 -5 9 4 10 32 5 21 -4 40 -12 42 -17 2 -5 15 -6 28 -3 13 3 32
3 41 -1 28 -12 43 -14 48 -5 7 11 -80 40 -119 40 -31 1 -103 28 -78 29 7 1 -3
17 -22 37 -19 20 -40 34 -45 33 -12 -4 31 -59 46 -59 5 0 9 -9 10 -20 3 -30
-9 -25 -63 30 -77 79 -89 90 -97 90 -5 0 -5 -6 -2 -12 4 -7 0 -5 -8 4 -17 22
-32 11 -14 -11 10 -14 10 -14 -5 -3 -9 8 -15 19 -13 25 3 7 0 19 -5 27 -9 13
-11 13 -21 0 -9 -13 -10 -13 -6 2 6 18 -17 43 -30 35 -5 -3 -9 2 -9 11 -1 27
-8 44 -24 64 -8 10 -20 35 -26 56 l-11 37 0 -52 c1 -28 4 -50 9 -47 4 3 5 -2
2 -10 -8 -20 -24 -21 -24 -1 0 13 -6 17 -26 14 -3 0 -14 9 -23 20 -19 21 -37
29 -26 11 3 -5 0 -7 -8 -4 -8 3 -14 15 -13 27 1 14 -4 21 -12 19 -8 -1 -12 3
-9 10 2 7 10 12 16 10 9 -2 11 43 7 178 -5 177 -6 183 -35 244 -17 34 -31 73
-30 87 1 21 2 20 10 -8 5 -18 14 -35 20 -39 8 -4 9 1 3 17 -4 13 -9 36 -9 52
-1 15 -5 30 -8 34 -4 3 -7 22 -6 42 1 33 2 34 9 11 l8 -25 1 24 c1 16 5 21 16
17 8 -3 15 0 15 6 0 7 15 -12 34 -41 26 -40 35 -48 39 -34z m-612 19 c5 3 9
-4 9 -15 0 -11 4 -22 9 -25 5 -4 7 4 4 16 -4 22 -4 22 8 4 10 -16 9 -21 -5
-31 -9 -7 -16 -17 -16 -24 0 -6 -4 -11 -10 -11 -5 0 -7 -15 -5 -32 4 -31 3
-32 -11 -14 -12 18 -14 18 -14 3 0 -10 6 -20 13 -23 25 -9 14 -74 -13 -74 -4
0 -8 29 -9 65 -1 39 2 65 8 65 6 0 7 7 4 17 -4 11 -3 14 6 9 9 -6 10 -1 5 18
-4 18 -2 26 7 26 10 0 10 3 1 12 -7 7 -12 17 -11 23 0 5 3 4 6 -3 2 -6 9 -10
14 -6z m423 -176 l-7 -35 -8 35 c-4 19 -5 39 -1 44 3 5 6 30 8 55 4 90 8 95
12 16 2 -44 0 -96 -4 -115z m3356 155 c0 -14 -4 -25 -10 -25 -11 0 -14 33 -3
43 11 11 13 8 13 -18z m-3720 -7 c0 -10 3 -9 9 1 10 16 4 -67 -10 -118 -4 -19
-6 -38 -3 -43 3 -4 1 -8 -5 -8 -10 0 -8 56 4 114 2 10 0 29 -5 42 -6 15 -6 24
0 24 6 0 10 -6 10 -12z m37 -20 c-3 -8 -6 -5 -6 6 -1 11 2 17 5 13 3 -3 4 -12
1 -19z m616 -7 c3 -14 1 -18 -9 -14 -8 3 -14 11 -14 19 0 21 17 17 23 -5z
m127 -3 l9 -23 0 24 c1 19 5 22 24 17 12 -3 25 -6 28 -6 6 0 7 -60 1 -60 -1 0
-6 10 -11 23 -7 17 -11 7 -21 -53 l-13 -75 -18 65 c-18 65 -24 110 -14 110 3
0 10 -10 15 -22z m282 5 c-6 -2 -10 -9 -6 -14 3 -5 0 -9 -5 -9 -12 0 -14 13
-4 23 3 4 11 7 17 6 6 0 5 -3 -2 -6z m-58 -18 c-4 -8 -8 -15 -10 -15 -2 0 -4
7 -4 15 0 8 4 15 10 15 5 0 7 -7 4 -15z m-77 -47 c-3 -7 -5 -2 -5 12 0 14 2
19 5 13 2 -7 2 -19 0 -25z m-40 -20 c-3 -8 -6 -5 -6 6 -1 11 2 17 5 13 3 -3 4
-12 1 -19z m2040 -30 c-3 -8 -6 -5 -6 6 -1 11 2 17 5 13 3 -3 4 -12 1 -19z
m806 -53 c-2 -38 -1 -38 7 -10 6 23 8 12 9 -46 0 -42 4 -118 8 -169 5 -76 4
-92 -7 -85 -10 6 -12 3 -8 -13 4 -12 3 -22 -2 -22 -10 0 -18 91 -25 275 -5
123 -4 146 6 130 7 -11 12 -38 12 -60z m-1937 0 c-3 -13 -11 -37 -17 -52 -10
-26 -12 -27 -19 -8 -14 33 -11 63 8 74 27 16 35 13 28 -14z m-1819 -7 c-3 -8
-6 -5 -6 6 -1 11 2 17 5 13 3 -3 4 -12 1 -19z m1464 -176 c6 -45 15 -85 20
-88 5 -3 7 -9 4 -15 -8 -11 14 -130 26 -145 5 -7 3 -11 -6 -11 -8 0 -16 4 -16
9 -1 4 -2 11 -4 16 -1 4 -5 21 -10 37 -4 17 -13 37 -20 45 -20 25 -25 77 -18
184 4 55 9 90 10 76 2 -14 8 -62 14 -108z m-1061 73 c2 11 6 -17 11 -63 4 -45
14 -96 22 -112 10 -20 11 -29 4 -27 -7 1 -11 -4 -9 -11 1 -8 -2 -11 -8 -7 -6
3 -8 11 -5 16 3 5 -1 6 -9 3 -11 -4 -14 5 -13 48 1 29 -1 82 -5 118 -4 39 -4
55 1 40 8 -22 9 -22 11 -5z m-141 -148 c0 -21 -1 -21 -9 -2 -12 28 -12 37 0
30 6 -3 10 -16 9 -28z m-85 -6 c4 -5 -3 -7 -14 -4 -23 6 -26 13 -6 13 8 0 17
-4 20 -9z m-9 -29 c-3 -3 -11 0 -18 7 -9 10 -8 11 6 5 10 -3 15 -9 12 -12z
m50 -20 c-3 -3 -11 0 -18 7 -9 10 -8 11 6 5 10 -3 15 -9 12 -12z m5585 -17 c0
-8 -7 -15 -16 -15 -14 0 -14 3 -4 15 7 8 14 15 16 15 2 0 4 -7 4 -15z m-5426
-15 c7 -7 5 -10 -5 -10 -8 0 -20 5 -26 11 -14 14 -36 2 -27 -13 4 -7 2 -8 -5
-4 -6 4 -9 11 -6 16 3 4 -1 11 -7 13 -7 3 5 4 26 2 22 -3 44 -9 50 -15z m4696
-171 c-14 -52 -22 -47 -10 6 5 22 11 74 12 115 l2 75 3 -77 c2 -43 -1 -96 -7
-119z m-275 121 c-7 -21 -23 -48 -34 -59 -27 -27 -26 -22 4 35 14 26 25 53 25
61 0 8 4 12 9 8 6 -3 4 -21 -4 -45z m-4479 -53 c-2 -7 -5 -4 -5 6 -1 11 -6 15
-13 11 -7 -4 -8 -3 -4 5 4 6 1 22 -8 35 -8 13 -12 27 -9 30 9 9 45 -72 39 -87z
m129 83 c3 -5 0 -10 -9 -10 -8 0 -16 -6 -19 -12 -3 -7 -4 -3 -4 10 1 22 21 30
32 12z m-50 -20 c3 -5 -1 -10 -10 -10 -9 0 -13 5 -10 10 3 6 8 10 10 10 2 0 7
-4 10 -10z m6230 -10 c-3 -5 -34 -9 -68 -8 l-62 1 60 7 c33 4 64 7 68 8 5 1 5
-2 2 -8z m-6128 -62 c-3 -8 -6 -5 -6 6 -1 11 2 17 5 13 3 -3 4 -12 1 -19z m77
-25 c8 -19 2 -16 -25 13 -23 25 -23 26 -2 13 13 -7 25 -19 27 -26z m193 1 c-3
-3 -12 -4 -19 -1 -8 3 -5 6 6 6 11 1 17 -2 13 -5z m4053 -39 c-7 -8 -22 -15
-34 -14 -18 0 -16 3 9 14 39 18 40 18 25 0z m103 -40 c-7 -21 -12 -19 -10 4 0
11 5 18 9 15 4 -3 5 -11 1 -19z m-4218 -25 c4 -11 11 -18 16 -15 5 3 6 -2 2
-11 -5 -13 -3 -15 7 -9 9 5 11 4 6 -4 -4 -6 -3 -26 2 -44 6 -17 13 -44 16 -59
6 -27 5 -27 -19 -16 -14 6 -23 13 -20 16 2 3 -2 14 -10 26 -19 27 -19 37 1 29
12 -4 14 0 8 23 -3 16 -13 39 -20 51 -16 26 -17 33 -5 33 5 0 13 -9 16 -20z
m4305 10 c0 -5 -5 -10 -11 -10 -5 0 -7 5 -4 10 3 6 8 10 11 10 2 0 4 -4 4 -10z
m60 -25 c0 -5 -5 -3 -10 5 -5 8 -10 20 -10 25 0 6 5 3 10 -5 5 -8 10 -19 10
-25z m-4515 7 c-3 -3 -11 0 -18 7 -9 10 -8 11 6 5 10 -3 15 -9 12 -12z m252
-28 c-3 -4 5 -26 18 -51 14 -24 25 -49 25 -56 -1 -7 -11 7 -23 31 -13 24 -26
39 -31 35 -4 -4 -6 -1 -4 7 2 9 -3 14 -12 12 -10 -1 -9 2 4 13 20 15 35 21 23
9z m4708 -23 c3 -5 1 -12 -5 -16 -5 -3 -10 1 -10 9 0 18 6 21 15 7z m222 -17
c-3 -3 -12 -4 -19 -1 -8 3 -5 6 6 6 11 1 17 -2 13 -5z m325 -36 c-8 -8 -9 -4
-5 13 4 13 8 18 11 10 2 -7 -1 -18 -6 -23z m2598 21 c0 -6 9 -9 20 -6 13 3 20
0 20 -9 0 -9 -12 -14 -34 -14 -29 0 -34 4 -33 20 1 21 27 29 27 9z m-2550 -26
c0 -12 -2 -12 -15 1 -8 8 -15 17 -15 20 0 3 7 3 15 0 8 -4 15 -13 15 -21z m31
14 c-6 -8 -7 -18 -3 -22 4 -5 1 -5 -5 -1 -19 10 -16 36 3 36 13 0 14 -3 5 -13z
m3187 -8 c-7 -5 -22 -8 -33 -8 -17 1 -17 2 -2 6 9 2 17 8 17 13 0 5 7 7 16 3
13 -5 13 -7 2 -14z m-8418 -39 c0 -5 -2 -10 -4 -10 -3 0 -8 5 -11 10 -3 6 -1
10 4 10 6 0 11 -4 11 -10z m-26 -22 c9 -35 -52 -76 -69 -48 -3 6 -16 10 -29
10 -13 0 -23 6 -23 15 0 11 4 12 13 4 8 -7 14 -6 20 2 4 8 3 9 -4 5 -8 -5 -10
-1 -5 9 4 12 8 13 13 5 4 -6 10 -11 14 -11 23 3 36 0 31 -9 -3 -6 1 -7 10 -4
10 4 13 13 10 25 -4 11 -2 19 3 19 5 0 12 -10 16 -22z m4901 12 c-3 -5 -21 -9
-38 -9 l-32 2 35 7 c19 4 36 8 38 9 2 0 0 -3 -3 -9z m-994 -31 c-5 -13 -10
-19 -10 -12 -1 15 10 45 15 40 3 -2 0 -15 -5 -28z m104 22 c10 -17 -12 -21
-25 -6 -10 12 -10 15 3 15 9 0 18 -4 22 -9z m211 -6 c42 -17 111 -91 125 -133
23 -69 3 -156 -62 -272 l-19 -35 2 30 c1 17 8 41 15 55 7 14 13 31 13 38 0 6
7 12 16 12 14 0 14 3 3 16 -8 10 -9 18 -3 22 13 9 16 54 3 47 -5 -4 -9 0 -9 8
0 8 -8 21 -17 28 -15 11 -16 11 -5 -1 6 -8 12 -18 12 -24 0 -5 -10 4 -22 20
-22 29 -62 66 -117 110 -14 10 -37 31 -52 45 -21 20 -31 23 -40 15 -8 -8 -13
-8 -16 2 -3 6 -9 10 -14 6 -10 -6 -12 9 -2 19 11 12 157 6 189 -8z m-404 -47
c-5 -63 -12 -76 -12 -24 0 30 -4 39 -21 43 -21 6 -21 7 -4 20 34 24 42 16 37
-39z m143 11 c-10 -15 -25 -10 -19 6 4 8 10 12 15 9 5 -3 7 -10 4 -15z m1152
-11 c-3 -8 -6 -5 -6 6 -1 11 2 17 5 13 3 -3 4 -12 1 -19z m-1097 -8 c0 -5 -2
-10 -4 -10 -3 0 -8 5 -11 10 -3 6 -1 10 4 10 6 0 11 -4 11 -10z m68 -62 c-9
-6 -7 -8 7 -4 16 5 20 1 21 -19 2 -21 -1 -24 -12 -14 -15 12 -17 7 -17 -33 0
-10 -6 -18 -13 -18 -18 0 -27 17 -12 22 9 3 12 24 10 69 -2 63 -2 64 13 35 13
-24 13 -31 3 -38z m770 35 c-3 -14 -38 -29 -38 -16 0 5 31 32 38 33 2 0 2 -7
0 -17z m263 3 c5 3 9 -8 9 -25 0 -33 13 -47 33 -34 6 4 15 8 19 8 14 0 20 15
6 15 -8 0 -15 7 -15 15 0 19 6 19 29 -2 24 -22 23 -32 -8 -43 -14 -6 -22 -14
-19 -20 4 -7 -2 -7 -19 -1 -31 12 -46 -15 -19 -35 17 -13 16 -14 -5 -20 -20
-6 -23 -11 -18 -38 17 -92 18 -135 5 -150 -8 -8 -20 -23 -28 -31 -7 -9 -20
-14 -29 -10 -9 3 -13 3 -10 -1 4 -3 -2 -23 -13 -42 -10 -20 -19 -45 -19 -54 0
-10 -5 -18 -12 -18 -6 0 -8 3 -5 7 4 3 -1 12 -11 19 -16 12 -16 13 0 14 9 0
20 5 24 12 4 7 3 8 -4 4 -15 -9 -15 14 -1 51 7 19 7 29 0 31 -18 6 -13 19 9
25 25 7 25 27 0 72 -23 41 -19 60 10 45 14 -7 23 -6 34 6 20 19 20 25 1 18 -8
-4 -15 -11 -15 -17 0 -6 -3 -7 -6 -4 -4 4 -1 13 6 22 7 8 9 15 5 15 -4 0 -2 7
5 16 8 8 9 14 4 13 -22 -5 -44 13 -35 29 4 10 6 23 4 29 -3 7 7 18 21 24 13 6
30 25 37 42 7 17 15 25 17 19 2 -7 8 -10 13 -6z m-1129 -52 c-3 -18 -1 -25 6
-20 6 4 8 -2 4 -16 -4 -17 -2 -20 12 -15 11 4 15 3 11 -4 -13 -20 -38 -4 -41
26 -2 17 -2 36 1 43 8 22 12 13 7 -14z m35 4 c-3 -8 -6 -5 -6 6 -1 11 2 17 5
13 3 -3 4 -12 1 -19z m820 6 c-3 -3 -12 -4 -19 -1 -8 3 -5 6 6 6 11 1 17 -2
13 -5z m-4803 -13 c21 -5 44 -15 50 -21 8 -9 -14 -10 -92 -5 -120 7 -157 17
-97 26 62 9 97 9 139 0z m3874 -35 c9 -20 8 -24 -6 -22 -9 2 -18 13 -20 24 -4
29 12 28 26 -2z m122 14 c0 -5 -2 -10 -4 -10 -3 0 -8 5 -11 10 -3 6 -1 10 4
10 6 0 11 -4 11 -10z m1235 1 c3 -5 1 -12 -5 -16 -5 -3 -10 1 -10 9 0 18 6 21
15 7z m55 -12 c0 -11 -29 -19 -34 -10 -3 5 -3 10 -1 13 8 7 35 5 35 -3z m-39
-32 c11 3 19 0 19 -6 0 -6 -5 -11 -11 -11 -5 0 -8 -4 -5 -9 3 -5 -4 -11 -15
-14 -12 -3 -18 -10 -15 -15 3 -6 -1 -13 -10 -16 -10 -4 -13 -2 -8 6 5 8 2 9
-10 5 -9 -4 -14 -3 -11 2 3 5 -4 16 -15 24 -20 14 -20 15 -3 22 10 5 24 7 32
6 8 -1 10 2 6 10 -6 8 -3 9 10 2 10 -6 26 -8 36 -6z m-4844 -3 c-3 -3 -12 -4
-19 -1 -8 3 -5 6 6 6 11 1 17 -2 13 -5z m4893 -34 c0 -5 -2 -10 -4 -10 -3 0
-8 5 -11 10 -3 6 -1 10 4 10 6 0 11 -4 11 -10z m-4555 -10 c-3 -5 -10 -10 -16
-10 -5 0 -9 5 -9 10 0 6 7 10 16 10 8 0 12 -4 9 -10z m-485 -23 c24 -4 24 -4
-3 -6 -16 0 -26 -5 -23 -9 3 -5 -11 -8 -29 -8 -40 1 -49 16 -10 16 17 0 25 6
25 18 0 11 3 13 8 6 4 -7 18 -14 32 -17z m440 17 c0 -8 -19 -13 -24 -6 -3 5 1
9 9 9 8 0 15 -2 15 -3z m4085 -14 c8 -13 -5 -13 -25 0 -13 8 -13 10 2 10 9 0
20 -4 23 -10z m495 -35 c0 -5 -5 -3 -10 5 -5 8 -10 20 -10 25 0 6 5 3 10 -5 5
-8 10 -19 10 -25z m-4983 9 c-3 -3 -12 -4 -19 -1 -8 3 -5 6 6 6 11 1 17 -2 13
-5z m4491 -37 c-1 -13 -8 -24 -15 -24 -8 0 -11 7 -8 14 3 8 5 19 5 24 0 5 4 9
10 9 5 0 9 -10 8 -23z m417 -2 c-2 -37 -15 -43 -15 -7 0 18 4 32 8 32 4 0 7
-11 7 -25z m-238 1 c0 -8 -6 -12 -15 -9 -11 5 -11 7 0 14 7 5 13 9 14 9 0 0 1
-6 1 -14z m262 -96 c0 -10 -3 -8 -9 5 -12 27 -12 43 0 25 5 -8 9 -22 9 -30z
m-425 -11 c-1 -19 -5 -58 -9 -86 -7 -46 -5 -53 9 -53 9 0 15 -3 14 -7 -3 -12
13 -57 27 -73 17 -21 45 -108 45 -141 0 -16 -11 -39 -24 -54 l-24 -25 -11 45
c-6 24 -25 58 -41 75 -30 30 -39 60 -20 60 6 0 4 16 -6 38 -17 39 -12 131 7
143 16 9 30 82 19 93 -14 14 -12 28 3 23 7 -2 11 -19 11 -38z m670 -75 c3 -8
2 -12 -4 -9 -6 3 -10 10 -10 16 0 14 7 11 14 -7z m-150 -93 c3 -5 -1 -11 -9
-14 -9 -4 -12 -1 -8 9 6 16 10 17 17 5z m-3991 -288 c-7 -2 -21 -2 -30 0 -10
3 -4 5 12 5 17 0 24 -2 18 -5z m-76 -9 c-3 -3 -12 -4 -19 -1 -8 3 -5 6 6 6 11
1 17 -2 13 -5z m3590 -26 c-3 -7 -5 -2 -5 12 0 14 2 19 5 13 2 -7 2 -19 0 -25z
m-3524 -15 c-13 -2 -33 -2 -45 0 -13 2 -3 4 22 4 25 0 35 -2 23 -4z m3576 -97
c0 -17 -4 -49 -8 -71 l-9 -40 -1 40 c-1 22 -8 65 -16 95 -20 75 -19 79 10 40
14 -20 25 -47 24 -64z m-2798 50 c15 -32 4 -73 -20 -81 -11 -3 -26 -17 -35
-30 -15 -22 -24 -25 -84 -27 l-67 -1 60 -7 c62 -7 51 -13 -20 -12 -36 1 -37 0
-10 -6 29 -7 29 -8 -25 -28 -45 -16 -114 -23 -140 -14 -3 1 -17 1 -33 0 -15
-1 -26 2 -25 7 2 4 -1 8 -7 8 -5 0 -9 -3 -7 -7 1 -5 -23 -8 -53 -8 -33 0 -55
4 -55 11 0 7 17 10 44 7 40 -3 45 -1 49 19 3 19 0 23 -19 23 -29 0 -41 18 -17
26 10 3 26 10 35 15 10 5 28 9 40 9 17 0 19 3 9 9 -7 5 -22 6 -32 4 -11 -3
-57 -2 -104 2 -63 5 -85 10 -85 21 0 10 12 14 39 14 22 0 41 5 44 13 3 10 9
10 26 0 25 -16 51 -17 51 -3 0 6 -9 10 -19 10 -11 0 -23 5 -26 10 -3 6 -18 10
-32 10 -15 0 -24 2 -21 5 10 11 189 22 356 24 l172 1 11 -24z m-524 -122 c-3
-3 -12 -4 -19 -1 -8 3 -5 6 6 6 11 1 17 -2 13 -5z m17 -49 c-30 -26 -44 -31
-44 -17 0 5 10 14 23 20 22 10 22 11 -5 11 -16 1 -28 -3 -28 -7 0 -4 -17 -6
-37 -3 l-38 5 30 7 c17 4 52 7 79 8 l49 1 -29 -25z m-151 8 c-7 -2 -19 -2 -25
0 -7 3 -2 5 12 5 14 0 19 -2 13 -5z m212 -3 c3 -5 1 -10 -4 -10 -6 0 -11 5
-11 10 0 6 2 10 4 10 3 0 8 -4 11 -10z m-156 -44 c-2 -2 -20 -6 -39 -10 -25
-4 -31 -3 -20 4 14 9 69 15 59 6z m-82 -12 c-3 -3 -12 -4 -19 -1 -8 3 -5 6 6
6 11 1 17 -2 13 -5z m363 -16 c12 -7 11 -8 -4 -4 -11 4 -23 0 -31 -11 -12 -16
-34 -18 -197 -20 -100 -1 -185 2 -188 7 -3 4 -27 4 -55 0 -27 -4 -54 -5 -60
-1 -16 10 114 19 152 11 18 -5 36 -4 39 1 3 5 16 9 30 9 13 0 24 4 24 8 0 4
19 9 42 11 23 1 45 4 47 7 9 8 185 -8 201 -18z m37 16 c-3 -3 -12 -4 -19 -1
-8 3 -5 6 6 6 11 1 17 -2 13 -5z m3581 -3 c11 -7 10 -10 -3 -15 -20 -7 -38 1
-30 15 7 11 16 11 33 0z m-4241 -37 c-3 -3 -12 -4 -19 -1 -8 3 -5 6 6 6 11 1
17 -2 13 -5z m50 -10 c-3 -3 -12 -4 -19 -1 -8 3 -5 6 6 6 11 1 17 -2 13 -5z
m-299 -11 c-10 -2 -28 -2 -40 0 -13 2 -5 4 17 4 22 1 32 -1 23 -4z m3982 -133
c0 -6 -65 -9 -177 -8 -168 2 -172 2 -68 8 191 10 245 10 245 0z m-72 -67 c-16
-2 -40 -2 -55 0 -16 2 -3 4 27 4 30 0 43 -2 28 -4z m667 -29 c13 -5 14 -8 3
-15 -21 -14 -38 -10 -32 6 7 17 7 17 29 9z m419 -3 c4 -5 -3 -7 -14 -4 -23 6
-26 13 -6 13 8 0 17 -4 20 -9z m-474 -11 c0 -5 -2 -10 -4 -10 -3 0 -8 5 -11
10 -3 6 -1 10 4 10 6 0 11 -4 11 -10z m-317 -20 c22 -26 22 -30 -7 -30 -23 0
-101 29 -81 30 6 0 3 5 -5 10 -11 7 -3 10 30 10 33 0 50 -5 63 -20z m182 0
c25 -21 17 -33 -17 -27 -18 3 -41 8 -51 12 -13 6 -16 3 -11 -9 4 -11 0 -16
-14 -16 -11 0 -22 7 -26 15 -3 10 1 15 12 15 15 0 15 2 2 10 -10 6 -16 6 -18
0 -6 -16 -32 -12 -32 5 0 11 14 14 70 11 39 -2 77 -9 85 -16z m255 4 c0 -2 -9
-4 -20 -4 -11 0 -20 4 -20 9 0 5 9 7 20 4 11 -3 20 -7 20 -9z m-610 -5 c-12
-8 -6 -9 24 -5 25 3 36 2 30 -4 -9 -9 -69 -16 -89 -11 -20 6 -65 1 -65 -7 0
-5 10 -14 23 -21 18 -9 19 -10 2 -6 -47 12 -91 12 -98 1 -5 -6 -6 -2 -2 10 5
20 2 21 -47 18 -46 -2 -48 -2 -18 5 33 8 33 8 -17 10 -36 1 -53 -3 -54 -11 0
-10 -2 -10 -6 0 -2 6 -21 13 -41 14 -46 2 116 12 263 16 82 2 106 0 95 -9z
m425 -10 c-29 -11 -32 -11 -32 4 0 9 9 12 26 9 23 -5 24 -6 6 -13z m65 -9 c8
-5 11 -10 5 -10 -5 0 -17 5 -25 10 -8 5 -10 10 -5 10 6 0 17 -5 25 -10z m87
-3 c0 -8 -13 -13 -34 -13 -20 0 -33 5 -33 13 0 8 13 13 33 13 21 0 34 -5 34
-13z m-2687 -17 c0 -5 -16 -10 -35 -10 -19 0 -35 5 -35 10 0 6 16 10 35 10 19
0 35 -4 35 -10z m2194 4 c9 -3 13 -10 10 -15 -7 -13 -71 -11 -79 2 -5 7 5 8
32 4 28 -5 34 -4 23 4 -17 12 -10 14 14 5z m146 -4 c0 -5 -17 -10 -37 -11 -34
-1 -35 -2 -13 -9 25 -8 25 -8 2 -9 -13 -1 -21 -5 -18 -9 3 -5 -9 -6 -27 -3
l-32 5 30 6 c17 3 29 9 27 15 -4 10 23 23 51 24 9 1 17 -3 17 -9z m-3225 -30
c4 -6 1 -18 -6 -26 -10 -13 -15 -12 -35 7 -18 17 -21 25 -13 35 12 14 41 5 54
-16z m1123 18 c-7 -19 -38 -22 -38 -4 0 10 9 16 21 16 12 0 19 -5 17 -12z
m118 3 c5 -5 18 -11 29 -14 16 -4 15 -5 -5 -5 -14 -1 -36 5 -50 13 -23 13 -23
14 -4 15 11 0 24 -4 30 -9z m1212 -7 c38 -19 40 -23 8 -17 -13 3 -33 0 -44 -6
-24 -13 -52 -5 -52 14 0 12 16 21 46 24 6 0 25 -6 42 -15z m265 9 c-7 -2 -21
-2 -30 0 -10 3 -4 5 12 5 17 0 24 -2 18 -5z m-2388 -13 c-3 -5 5 -15 19 -22
28 -12 36 -48 11 -48 -8 0 -21 -13 -30 -30 -9 -18 -23 -30 -36 -30 -21 0 -69
42 -69 61 0 7 -11 9 -32 5 -38 -7 -55 1 -60 29 -2 17 2 20 27 18 16 -1 31 -7
33 -13 5 -13 35 -13 48 0 6 6 21 13 35 15 13 3 25 9 27 15 2 5 10 10 18 10 9
0 12 -4 9 -10z m1285 6 c0 -3 -4 -8 -10 -11 -5 -3 -10 -1 -10 4 0 6 5 11 10
11 6 0 10 -2 10 -4z m259 -21 c9 2 50 7 91 10 59 4 72 3 62 -7 -8 -8 -37 -12
-85 -10 -52 2 -68 0 -57 -7 10 -7 11 -11 3 -11 -7 0 -13 -7 -13 -16 0 -12 -4
-14 -12 -7 -7 6 -28 13 -47 17 -26 5 -37 2 -47 -11 -8 -11 -13 -13 -14 -5 0 6
-9 12 -19 12 -25 0 -38 20 -20 31 19 11 27 0 9 -12 -11 -7 -5 -8 20 -3 19 4
43 7 53 6 15 -1 16 1 2 14 -23 24 -18 26 22 9 20 -8 43 -13 52 -10z m481 9 c0
-7 -6 -14 -14 -14 -8 0 -16 -5 -18 -12 -3 -8 -11 -6 -29 5 -18 11 -47 15 -116
13 -62 -1 -89 2 -83 9 5 6 63 11 134 12 104 2 126 -1 126 -13z m933 9 c-7 -2
-19 -2 -25 0 -7 3 -2 5 12 5 14 0 19 -2 13 -5z m-1816 -9 c-3 -3 -12 -4 -19
-1 -8 3 -5 6 6 6 11 1 17 -2 13 -5z m1909 -9 c-8 -8 -17 -15 -20 -15 -3 0 -3
7 0 15 4 8 13 15 21 15 12 0 12 -2 -1 -15z m-526 -5 c0 -5 -7 -7 -15 -4 -8 4
-15 8 -15 10 0 2 7 4 15 4 8 0 15 -4 15 -10z m203 3 c-7 -2 -19 -2 -25 0 -7 3
-2 5 12 5 14 0 19 -2 13 -5z m432 -3 c4 -6 -6 -7 -27 -3 -44 8 -48 13 -10 13
17 0 34 -4 37 -10z m345 -10 c0 -5 -4 -10 -10 -10 -5 0 -10 5 -10 10 0 6 5 10
10 10 6 0 10 -4 10 -10z m-2375 -10 c17 -7 15 -9 -12 -9 -18 -1 -33 4 -33 9 0
12 17 12 45 0z m50 0 c3 -5 -1 -10 -9 -10 -9 0 -16 5 -16 10 0 6 4 10 9 10 6
0 13 -4 16 -10z m1158 3 c-7 -2 -19 -2 -25 0 -7 3 -2 5 12 5 14 0 19 -2 13 -5z
m82 -4 c12 -19 -5 -23 -22 -6 -16 16 -16 17 -1 17 9 0 20 -5 23 -11z m1220 1
c-3 -5 -13 -10 -21 -10 -8 0 -12 5 -9 10 3 6 13 10 21 10 8 0 12 -4 9 -10z
m-2675 -10 c27 -18 -9 -32 -65 -26 -27 3 -63 6 -80 6 -29 1 -29 1 -11 15 23
17 132 20 156 5z m2625 -5 c22 -8 33 -14 25 -14 -8 -1 -33 6 -55 14 -22 8 -33
14 -25 14 8 1 33 -6 55 -14z m-5185 -10 c18 -11 -3 -35 -38 -45 -60 -16 -101
5 -86 45 5 11 19 13 61 10 30 -3 59 -7 63 -10z m2160 -4 c0 -6 -4 -12 -9 -15
-18 -12 -108 -14 -146 -4 -34 9 -37 12 -20 19 28 11 175 11 175 0z m2753 2
c-7 -2 -19 -2 -25 0 -7 3 -2 5 12 5 14 0 19 -2 13 -5z m210 -15 c9 -5 22 -6
27 -3 14 9 70 -4 70 -16 0 -6 -8 -6 -19 1 -11 5 -28 10 -38 10 -14 -1 -13 -4
7 -15 37 -21 13 -18 -50 6 -93 36 -98 39 -55 32 22 -3 48 -10 58 -15z m-913 2
c0 -5 -4 -10 -10 -10 -5 0 -10 5 -10 10 0 6 5 10 10 10 6 0 10 -4 10 -10z
m-2303 -17 c2 -6 -11 -14 -29 -18 -44 -10 -53 -16 -37 -26 10 -6 4 -9 -18 -9
-30 0 -31 1 -20 23 7 12 16 28 20 35 11 16 79 12 84 -5z m3037 1 c3 -8 2 -12
-4 -9 -6 3 -10 10 -10 16 0 14 7 11 14 -7z m-759 -4 c3 -6 -1 -7 -9 -4 -18 7
-21 14 -7 14 6 0 13 -4 16 -10z m862 4 c-3 -3 -12 -4 -19 -1 -8 3 -5 6 6 6 11
1 17 -2 13 -5z m-164 -21 c-7 -2 -19 -2 -25 0 -7 3 -2 5 12 5 14 0 19 -2 13
-5z m-2019 -24 c-3 -5 -10 -7 -15 -3 -5 3 -7 10 -3 15 3 5 10 7 15 3 5 -3 7
-10 3 -15z m1596 11 c0 -5 -11 -10 -24 -10 -14 0 -28 5 -31 10 -4 6 7 10 24
10 17 0 31 -4 31 -10z m567 4 c-3 -3 -12 -4 -19 -1 -8 3 -5 6 6 6 11 1 17 -2
13 -5z m-1447 -48 c7 -9 8 -16 3 -16 -10 0 -53 37 -53 46 0 8 36 -14 50 -30z
m407 28 c-3 -3 -12 -4 -19 -1 -8 3 -5 6 6 6 11 1 17 -2 13 -5z m48 -4 c3 -5 1
-10 -4 -10 -6 0 -11 5 -11 10 0 6 2 10 4 10 3 0 8 -4 11 -10z m72 -6 c-3 -3
-12 -4 -19 -1 -8 3 -5 6 6 6 11 1 17 -2 13 -5z m278 -24 c16 -24 27 -30 55
-30 19 0 41 -4 48 -9 28 -18 -29 -19 -101 -2 -67 15 -72 18 -73 44 -1 40 44
38 71 -3z m220 7 c47 -26 55 -51 25 -79 -12 -11 -22 -18 -24 -17 -29 40 -43
67 -41 82 2 9 -1 17 -6 17 -5 0 -9 5 -9 10 0 14 9 12 55 -13z m-319 -5 c-10
-2 -22 0 -28 6 -6 6 0 7 19 4 21 -5 23 -7 9 -10z m-2328 -5 c24 6 75 -15 67
-27 -9 -14 -40 -12 -83 5 -29 13 -33 18 -22 25 8 5 16 5 18 1 2 -5 11 -7 20
-4z m3149 7 c-3 -3 -12 -4 -19 -1 -8 3 -5 6 6 6 11 1 17 -2 13 -5z m-380 -20
c-3 -3 -12 -4 -19 -1 -8 3 -5 6 6 6 11 1 17 -2 13 -5z m19 -31 c-10 -10 -19 5
-10 18 6 11 8 11 12 0 2 -7 1 -15 -2 -18z m-421 -24 c15 -6 9 -8 -21 -8 -25
-1 -46 5 -54 14 -11 13 -8 14 21 8 19 -3 43 -10 54 -14z m-2467 -10 c12 -5 22
-15 22 -24 0 -18 5 -19 -54 3 -59 21 -75 45 -24 35 18 -3 43 -10 56 -14z m408
4 c11 -7 26 -18 32 -26 10 -12 4 -15 -35 -20 -37 -4 -66 1 -122 21 -55 19 -69
27 -55 32 30 11 157 5 180 -7z m214 -23 c0 -15 -13 -18 -35 -8 -13 6 -21 16
-18 24 4 10 10 10 29 2 13 -6 24 -14 24 -18z m313 -4 c25 -20 26 -24 13 -35
-25 -21 -66 -6 -66 23 0 14 -6 27 -12 29 -7 3 -2 6 12 6 14 0 38 -10 53 -23z
m484 -12 c-2 -2 -12 -1 -22 3 -18 6 -18 7 1 13 17 7 33 -5 21 -16z m608 -24
c3 -5 -3 -10 -14 -10 -11 0 -23 5 -26 10 -3 6 3 10 14 10 11 0 23 -4 26 -10z
m-840 -8 c18 -13 15 -32 -5 -32 -11 0 -20 5 -20 10 0 6 -8 10 -17 10 -15 0
-16 2 -3 10 18 12 31 12 45 2z m1059 -18 c9 -3 16 -12 16 -20 0 -10 -14 -14
-50 -14 -46 0 -120 21 -120 34 0 8 134 8 154 0z m60 -155 c-11 -18 -24 -8 -24
19 1 26 1 26 15 8 8 -10 12 -23 9 -27z"/>
<path d="M5870 7817 c0 -14 5 -29 10 -32 7 -4 8 3 4 22 -9 38 -14 42 -14 10z"/>
<path d="M4596 4965 c-3 -9 0 -12 8 -9 9 3 11 -4 8 -25 -2 -17 -8 -28 -13 -25
-5 3 -6 -2 -2 -11 4 -12 8 -13 13 -5 6 9 9 9 13 -1 3 -8 3 1 0 18 -3 20 0 39
7 48 7 8 11 15 9 16 -31 6 -38 5 -43 -6z"/>
<path d="M5180 4873 c0 -5 4 -14 9 -21 7 -11 9 -11 14 1 3 8 3 18 0 21 -9 8
-23 7 -23 -1z"/>
<path d="M4600 4850 c0 -11 5 -20 10 -20 6 0 10 9 10 20 0 11 -4 20 -10 20 -5
0 -10 -9 -10 -20z"/>
<path d="M4611 4784 c0 -11 3 -14 6 -6 3 7 2 16 -1 19 -3 4 -6 -2 -5 -13z"/>
<path d="M3865 3639 c-4 -6 -5 -12 -2 -15 2 -3 7 2 10 11 7 17 1 20 -8 4z"/>
<path d="M3130 3114 c0 -8 5 -12 10 -9 6 3 10 10 10 16 0 5 -4 9 -10 9 -5 0
-10 -7 -10 -16z"/>
<path d="M639 3233 c-2 -49 3 -77 17 -106 35 -67 43 25 9 97 -21 43 -25 45
-26 9z"/>
<path d="M1380 3056 c0 -39 14 -49 23 -16 3 13 1 18 -6 13 -6 -4 -8 0 -4 10 3
9 2 19 -3 22 -6 4 -10 -9 -10 -29z"/>
<path d="M1362 3060 c0 -14 2 -19 5 -12 2 6 2 18 0 25 -3 6 -5 1 -5 -13z"/>
<path d="M1696 3047 c3 -10 9 -15 12 -12 3 3 0 11 -7 18 -10 9 -11 8 -5 -6z"/>
<path d="M660 3019 c0 -5 5 -7 10 -4 6 3 10 8 10 11 0 2 -4 4 -10 4 -5 0 -10
-5 -10 -11z"/>
<path d="M687 3003 c-15 -24 -11 -387 4 -378 4 3 15 -5 23 -17 23 -32 29 -5
17 73 -6 35 -11 93 -11 129 0 138 -15 222 -33 193z"/>
<path d="M1350 2995 c0 -8 2 -15 4 -15 2 0 6 7 10 15 3 8 1 15 -4 15 -6 0 -10
-7 -10 -15z"/>
<path d="M1382 2940 c0 -19 2 -27 5 -17 2 9 2 25 0 35 -3 9 -5 1 -5 -18z"/>
<path d="M1421 2934 c0 -11 3 -14 6 -6 3 7 2 16 -1 19 -3 4 -6 -2 -5 -13z"/>
<path d="M1757 2931 c-7 -28 6 -64 15 -40 2 8 2 25 -2 39 l-6 25 -7 -24z"/>
<path d="M1682 2910 c0 -14 2 -19 5 -12 2 6 2 18 0 25 -3 6 -5 1 -5 -13z"/>
<path d="M1743 2808 c0 -13 -4 -32 -8 -42 -6 -13 -5 -17 3 -12 7 4 11 -4 10
-21 0 -16 9 -50 21 -76 12 -27 18 -53 15 -58 -3 -5 -2 -9 3 -8 17 3 33 -1 31
-8 -5 -15 50 -85 57 -74 9 15 -4 33 -17 25 -8 -5 -9 -1 -5 10 4 9 3 15 -2 12
-5 -3 -14 1 -21 9 -7 8 -10 15 -7 15 3 0 -1 16 -9 35 -8 19 -21 67 -29 106
-16 76 -44 133 -42 87z"/>
<path d="M1930 2811 c0 -10 19 -25 25 -20 1 2 -3 10 -11 17 -8 7 -14 8 -14 3z"/>
<path d="M1861 2784 c0 -11 3 -14 6 -6 3 7 2 16 -1 19 -3 4 -6 -2 -5 -13z"/>
<path d="M2242 2776 c-9 -19 -8 -25 4 -30 10 -4 14 3 14 24 0 36 -3 37 -18 6z"/>
<path d="M1681 2764 c0 -11 3 -14 6 -6 3 7 2 16 -1 19 -3 4 -6 -2 -5 -13z"/>
<path d="M1821 2754 c0 -11 3 -14 6 -6 3 7 2 16 -1 19 -3 4 -6 -2 -5 -13z"/>
<path d="M2047 2759 c7 -7 15 -10 18 -7 3 3 -2 9 -12 12 -14 6 -15 5 -6 -5z"/>
<path d="M2476 2755 c-7 -18 3 -45 16 -45 5 0 6 6 1 13 -4 6 -6 20 -5 30 4 21
-4 23 -12 2z"/>
<path d="M2322 2700 c0 -14 2 -19 5 -12 2 6 2 18 0 25 -3 6 -5 1 -5 -13z"/>
<path d="M1831 2685 c0 -11 7 -36 15 -55 l14 -35 -6 45 c-6 46 -25 81 -23 45z"/>
<path d="M1920 2679 c0 -11 4 -18 10 -14 5 3 7 12 3 20 -7 21 -13 19 -13 -6z"/>
<path d="M1870 2650 c0 -61 39 -148 61 -134 5 3 9 0 9 -7 0 -7 2 -10 5 -7 8 7
-37 98 -45 93 -3 -2 -5 8 -3 23 3 15 -3 36 -11 47 -15 19 -15 18 -16 -15z"/>
<path d="M1441 2610 c0 -8 4 -22 9 -30 12 -18 12 -2 0 25 -6 13 -9 15 -9 5z"/>
<path d="M1550 2561 c0 -6 4 -13 10 -16 6 -3 7 1 4 9 -7 18 -14 21 -14 7z"/>
<path d="M1726 2550 c7 -27 46 -102 50 -97 2 1 -11 29 -27 62 -17 33 -27 49
-23 35z"/>
<path d="M1805 2540 c27 -53 76 -122 83 -116 3 3 -1 14 -9 23 -8 10 -23 35
-33 55 -10 21 -28 45 -39 55 -20 18 -20 18 -2 -17z"/>
<path d="M2856 2557 c3 -10 9 -15 12 -12 3 3 0 11 -7 18 -10 9 -11 8 -5 -6z"/>
<path d="M1475 2523 c15 -36 25 -52 25 -41 0 11 -30 78 -35 78 -3 0 2 -17 10
-37z"/>
<path d="M1650 2530 c0 -6 7 -10 15 -10 8 0 15 2 15 4 0 2 -7 6 -15 10 -8 3
-15 1 -15 -4z"/>
<path d="M2868 2523 c6 -2 18 -2 25 0 6 3 1 5 -13 5 -14 0 -19 -2 -12 -5z"/>
<path d="M1570 2516 c0 -10 40 -76 46 -76 3 0 -2 12 -10 28 -22 40 -36 58 -36
48z"/>
<path d="M1985 2481 c8 -17 19 -33 25 -36 5 -3 1 10 -11 29 -25 43 -36 48 -14
7z"/>
<path d="M866 2488 c3 -5 10 -6 15 -3 13 9 11 12 -6 12 -8 0 -12 -4 -9 -9z"/>
<path d="M1540 2496 c0 -2 8 -10 18 -17 15 -13 16 -12 3 4 -13 16 -21 21 -21
13z"/>
<path d="M1677 2479 c12 -12 24 -21 27 -18 2 2 -8 13 -22 23 l-27 19 22 -24z"/>
<path d="M910 2470 c6 -11 16 -20 22 -20 6 0 3 9 -7 20 -10 11 -20 20 -22 20
-2 0 1 -9 7 -20z"/>
<path d="M1900 2460 c27 -39 34 -39 12 0 -9 16 -21 30 -25 30 -5 0 1 -13 13
-30z"/>
<path d="M1055 2448 c34 -24 145 -70 161 -66 22 4 -86 55 -156 73 -24 7 -24 6
-5 -7z"/>
<path d="M1423 2443 c9 -2 14 -9 11 -15 -4 -7 -2 -8 5 -4 15 10 4 26 -17 25
-15 -1 -15 -2 1 -6z"/>
<path d="M992 2431 c-10 -6 -10 -10 2 -20 12 -10 15 -9 13 8 -1 12 -1 21 -2
21 0 0 -6 -4 -13 -9z"/>
<path d="M1380 2396 c0 -2 7 -7 16 -10 8 -3 12 -2 9 4 -6 10 -25 14 -25 6z"/>
<path d="M2100 2356 c0 -2 8 -10 18 -17 15 -13 16 -12 3 4 -13 16 -21 21 -21
13z"/>
<path d="M1158 2313 c7 -3 16 -2 19 1 4 3 -2 6 -13 5 -11 0 -14 -3 -6 -6z"/>
<path d="M1328 2243 c7 -3 16 -2 19 1 4 3 -2 6 -13 5 -11 0 -14 -3 -6 -6z"/>
<path d="M1878 2123 c7 -3 16 -2 19 1 4 3 -2 6 -13 5 -11 0 -14 -3 -6 -6z"/>
<path d="M1906 2113 c-11 -11 -6 -23 8 -23 8 0 17 4 20 9 7 10 -19 23 -28 14z"/>
<path d="M1963 2063 c9 -2 23 -2 30 0 6 3 -1 5 -18 5 -16 0 -22 -2 -12 -5z"/>
<path d="M2970 2050 c0 -5 -7 -10 -15 -10 -8 0 -15 -4 -15 -10 0 -5 13 -8 30
-7 16 1 30 3 30 4 0 1 -3 8 -6 17 -7 18 -24 22 -24 6z"/>
<path d="M1870 2032 c0 -4 29 -15 64 -23 36 -8 63 -12 60 -8 -2 4 2 9 8 12 18
6 -60 27 -99 27 -18 0 -33 -4 -33 -8z"/>
<path d="M2258 1993 c7 -3 16 -2 19 1 4 3 -2 6 -13 5 -11 0 -14 -3 -6 -6z"/>
<path d="M2925 1990 c4 -6 11 -8 16 -5 14 9 11 15 -7 15 -8 0 -12 -5 -9 -10z"/>
<path d="M2955 1980 c-4 -7 -1 -16 6 -21 17 -10 26 8 11 23 -6 6 -12 6 -17 -2z"/>
<path d="M2438 1953 c13 -3 26 -11 29 -19 6 -16 43 -19 43 -3 0 6 -7 8 -16 5
-8 -3 -13 -2 -10 3 7 11 -18 21 -47 20 -21 -2 -21 -2 1 -6z"/>
<path d="M2838 1953 c7 -3 16 -2 19 1 4 3 -2 6 -13 5 -11 0 -14 -3 -6 -6z"/>
<path d="M1618 1803 c12 -2 32 -2 45 0 12 2 2 4 -23 4 -25 0 -35 -2 -22 -4z"/>
<path d="M2475 1590 c-25 -6 -20 -8 27 -9 31 0 60 4 63 9 7 12 -45 12 -90 0z"/>
<path d="M2538 1353 c7 -3 16 -2 19 1 4 3 -2 6 -13 5 -11 0 -14 -3 -6 -6z"/>
<path d="M3892 2880 c0 -19 3 -60 8 -90 6 -48 7 -50 8 -15 0 22 -3 63 -8 90
-6 40 -7 43 -8 15z"/>
<path d="M950 2250 c0 -5 5 -10 11 -10 5 0 7 5 4 10 -3 6 -8 10 -11 10 -2 0
-4 -4 -4 -10z"/>
<path d="M6052 1938 c2 -6 12 -12 22 -14 14 -2 15 0 5 12 -14 17 -32 19 -27 2z"/>
<path d="M6036 1794 c-5 -14 -4 -15 9 -4 17 14 19 20 6 20 -5 0 -12 -7 -15
-16z"/>
<path d="M5871 1618 c-1 -20 4 -28 15 -28 12 0 14 4 7 13 -6 6 -13 19 -16 27
-3 9 -6 3 -6 -12z"/>
<path d="M5893 1545 c13 -43 24 -45 24 -5 0 20 -3 26 -9 18 -6 -10 -8 -8 -8 5
0 9 -4 17 -9 17 -5 0 -4 -15 2 -35z"/>
<path d="M5845 1540 c-3 -5 -1 -10 4 -10 6 0 11 5 11 10 0 6 -2 10 -4 10 -3 0
-8 -4 -11 -10z"/>
<path d="M5911 1478 c-1 -19 4 -28 14 -28 8 0 15 5 15 11 0 5 -4 8 -9 4 -5 -3
-12 5 -14 17 -4 20 -4 19 -6 -4z"/>
<path d="M5942 1240 c0 -14 2 -19 5 -12 2 6 2 18 0 25 -3 6 -5 1 -5 -13z"/>
<path d="M2640 1214 c0 -9 5 -14 12 -12 18 6 21 28 4 28 -9 0 -16 -7 -16 -16z"/>
<path d="M2968 1193 c6 -2 18 -2 25 0 6 3 1 5 -13 5 -14 0 -19 -2 -12 -5z"/>
<path d="M2840 1181 c0 -12 37 -24 50 -16 20 12 10 25 -20 25 -16 0 -30 -4
-30 -9z"/>
<path d="M2755 1150 c4 -6 11 -8 16 -5 14 9 11 15 -7 15 -8 0 -12 -5 -9 -10z"/>
<path d="M2835 1120 c-16 -4 -41 -6 -55 -5 -14 1 -19 0 -12 -2 6 -2 12 -9 12
-14 0 -5 9 -9 20 -9 11 0 20 5 20 10 0 6 5 10 10 10 6 0 10 -7 10 -15 0 -9 9
-15 23 -15 17 0 19 2 7 10 -10 6 3 8 37 5 44 -4 51 -2 46 11 -4 11 -16 15 -39
12 -19 -2 -34 0 -34 4 0 9 -2 9 -45 -2z"/>
<path d="M2598 1033 c7 -3 16 -2 19 1 4 3 -2 6 -13 5 -11 0 -14 -3 -6 -6z"/>
<path d="M2630 1025 c-7 -8 -9 -15 -6 -15 4 0 14 7 22 15 9 8 11 15 6 15 -5 0
-15 -7 -22 -15z"/>
<path d="M6120 733 c8 -3 21 -10 28 -16 8 -7 12 -5 12 7 0 11 -8 16 -27 15
-16 0 -22 -3 -13 -6z"/>
<path d="M6290 730 c0 -5 9 -10 21 -10 11 0 17 5 14 10 -3 6 -13 10 -21 10 -8
0 -14 -4 -14 -10z"/>
<path d="M5540 9270 c14 -4 32 -8 40 -9 13 -1 13 0 0 9 -8 5 -26 9 -40 9 l-25
-1 25 -8z"/>
<path d="M5150 9190 c-8 -5 -12 -11 -9 -15 11 -11 138 -15 144 -5 8 12 -5 17
-70 24 -27 3 -57 2 -65 -4z"/>
<path d="M4435 9140 c-3 -5 -1 -10 4 -10 6 0 11 5 11 10 0 6 -2 10 -4 10 -3 0
-8 -4 -11 -10z"/>
<path d="M6130 8780 c0 -6 7 -10 15 -10 8 0 15 2 15 4 0 2 -7 6 -15 10 -8 3
-15 1 -15 -4z"/>
<path d="M6032 8754 c10 -10 20 -16 22 -13 3 3 -5 11 -17 18 -21 13 -21 12 -5
-5z"/>
<path d="M6538 8652 c-19 -8 -12 -25 13 -34 12 -5 15 -1 11 18 -2 13 -5 24 -6
23 0 0 -9 -3 -18 -7z"/>
<path d="M6180 8585 c0 -8 4 -15 9 -15 5 0 16 -3 25 -6 9 -3 16 -1 16 5 0 6
-7 11 -15 11 -8 0 -15 5 -15 10 0 6 -4 10 -10 10 -5 0 -10 -7 -10 -15z"/>
<path d="M5948 8560 c-21 -23 -13 -31 20 -19 26 10 28 9 52 -31 4 -8 12 -11
16 -7 7 7 -54 78 -65 76 -4 0 -13 -9 -23 -19z"/>
<path d="M6123 8484 c-7 -7 -14 -30 -14 -51 -1 -21 -3 -30 -6 -20 -2 9 -9 17
-14 17 -5 0 -9 7 -9 15 0 8 -4 15 -9 15 -6 0 -7 -17 -4 -37 7 -49 34 -112 40
-95 3 6 8 10 13 7 8 -5 25 135 19 153 -2 6 -9 4 -16 -4z m4 -76 c-3 -7 -5 -2
-5 12 0 14 2 19 5 13 2 -7 2 -19 0 -25z"/>
<path d="M6151 8454 c0 -11 3 -14 6 -6 3 7 2 16 -1 19 -3 4 -6 -2 -5 -13z"/>
<path d="M6225 8340 c5 -14 2 -20 -10 -20 -9 0 -13 -4 -10 -10 14 -22 35 -10
35 20 0 17 -5 30 -11 30 -6 0 -8 -9 -4 -20z"/>
<path d="M6367 8354 c-3 -3 -3 -13 0 -21 5 -12 7 -12 14 -1 15 23 4 40 -14 22z"/>
<path d="M6306 8297 c3 -10 9 -15 12 -12 3 3 0 11 -7 18 -10 9 -11 8 -5 -6z"/>
<path d="M6177 8233 c-4 -3 -7 -15 -7 -25 0 -16 3 -16 20 -6 11 7 20 18 20 25
0 14 -22 18 -33 6z"/>
<path d="M6170 8165 c0 -8 4 -15 10 -15 5 0 7 7 4 15 -4 8 -8 15 -10 15 -2 0
-4 -7 -4 -15z"/>
<path d="M6530 8010 c0 -5 5 -10 11 -10 5 0 7 5 4 10 -3 6 -8 10 -11 10 -2 0
-4 -4 -4 -10z"/>
<path d="M6630 8010 c0 -5 5 -10 10 -10 6 0 10 5 10 10 0 6 -4 10 -10 10 -5 0
-10 -4 -10 -10z"/>
<path d="M6740 7920 c-13 -8 -12 -10 3 -10 9 0 17 5 17 10 0 12 -1 12 -20 0z"/>
<path d="M6875 7870 c-3 -5 1 -10 10 -10 9 0 13 5 10 10 -3 6 -8 10 -10 10 -2
0 -7 -4 -10 -10z"/>
<path d="M6266 7861 c-3 -5 1 -11 9 -15 8 -3 15 -1 15 4 0 13 -18 22 -24 11z"/>
<path d="M6430 7849 c0 -5 4 -9 9 -9 5 0 17 -3 27 -7 11 -4 15 -3 11 4 -9 14
-47 24 -47 12z"/>
<path d="M6260 7830 c0 -5 10 -10 23 -10 18 0 19 2 7 10 -19 13 -30 13 -30 0z"/>
<path d="M6872 7797 c-6 -7 -7 -19 -3 -26 6 -9 10 -5 13 13 6 30 5 31 -10 13z"/>
<path d="M6282 7784 c-7 -8 -8 -14 -2 -14 5 0 9 -4 8 -9 -3 -9 2 -11 21 -11 5
0 12 7 15 16 3 8 2 12 -3 9 -6 -3 -13 1 -18 9 -7 12 -10 12 -21 0z"/>
<path d="M6827 7751 c-3 -14 -1 -18 9 -14 8 3 14 11 14 19 0 21 -17 17 -23 -5z"/>
<path d="M6328 7673 c-2 -11 6 -23 20 -30 35 -19 47 -5 21 23 -27 29 -36 30
-41 7z"/>
<path d="M6780 7681 c0 -16 25 -19 38 -5 11 12 8 14 -13 14 -14 0 -25 -4 -25
-9z"/>
<path d="M6295 7670 c-3 -5 -2 -10 4 -10 5 0 13 5 16 10 3 6 2 10 -4 10 -5 0
-13 -4 -16 -10z"/>
<path d="M6230 7620 c-10 -18 -8 -20 19 -20 27 0 47 20 34 34 -13 13 -43 5
-53 -14z m40 0 c0 -5 -4 -10 -10 -10 -5 0 -10 5 -10 10 0 6 5 10 10 10 6 0 10
-4 10 -10z"/>
<path d="M6380 7620 c0 -5 5 -10 10 -10 6 0 10 5 10 10 0 6 -4 10 -10 10 -5 0
-10 -4 -10 -10z"/>
<path d="M6335 7590 c-4 -6 6 -15 22 -22 l28 -12 -27 -4 c-30 -4 -35 -17 -17
-42 9 -13 10 -12 5 3 -7 21 12 22 59 3 20 -9 35 -11 35 -5 0 5 -11 14 -25 19
-14 5 -25 15 -25 22 0 9 3 9 11 -2 9 -12 10 -13 7 0 -6 19 -66 52 -73 40z"/>
<path d="M6850 7592 c0 -4 9 -8 20 -9 11 -1 20 2 20 8 0 5 -9 9 -20 9 -11 0
-20 -4 -20 -8z"/>
<path d="M6244 7566 c-3 -8 -12 -12 -19 -10 -7 3 -16 1 -20 -5 -3 -6 -15 -11
-26 -11 -12 0 -19 -7 -19 -19 0 -11 -3 -21 -7 -23 -5 -1 -18 -17 -30 -35 -32
-45 -31 -116 1 -163 13 -19 26 -45 30 -57 4 -14 15 -23 27 -23 10 0 19 -7 19
-15 0 -26 18 -16 29 15 5 17 16 31 23 31 59 5 83 11 86 19 2 6 10 17 18 24 8
8 14 21 14 29 0 8 7 20 15 27 17 14 21 35 5 25 -14 -8 -13 11 1 34 13 20 5 71
-11 71 -6 0 -10 -16 -10 -36 0 -24 -4 -34 -12 -31 -7 2 -12 16 -10 31 1 14 -2
26 -8 26 -5 0 -10 5 -10 11 0 6 -10 20 -22 31 -18 15 -19 18 -5 14 23 -7 22 9
-3 34 -23 23 -48 26 -56 6z m-44 -226 c0 -5 -5 -10 -11 -10 -5 0 -7 5 -4 10 3
6 8 10 11 10 2 0 4 -4 4 -10z"/>
<path d="M6971 7521 c-7 -5 -12 -13 -10 -18 2 -6 13 -2 23 8 20 19 12 26 -13
10z"/>
<path d="M6497 7429 c4 -13 8 -18 11 -10 2 7 -1 18 -6 23 -8 8 -9 4 -5 -13z"/>
<path d="M6960 7440 c0 -5 5 -10 10 -10 6 0 10 5 10 10 0 6 -4 10 -10 10 -5 0
-10 -4 -10 -10z"/>
<path d="M7060 7411 c0 -6 5 -13 10 -16 6 -3 10 1 10 9 0 9 -4 16 -10 16 -5 0
-10 -4 -10 -9z"/>
<path d="M6387 7303 c-2 -4 -1 -17 4 -28 4 -11 8 -14 8 -7 1 7 6 10 11 7 6 -3
10 -2 10 3 0 14 -27 34 -33 25z"/>
<path d="M7108 7268 c8 -8 9 -15 1 -25 -9 -10 -7 -22 5 -46 9 -19 16 -25 16
-14 0 9 6 17 14 17 18 0 23 15 18 52 -4 24 -9 28 -35 28 -24 0 -28 -3 -19 -12z"/>
<path d="M7432 7260 c0 -14 2 -19 5 -12 2 6 2 18 0 25 -3 6 -5 1 -5 -13z"/>
<path d="M7400 7255 c0 -9 -6 -12 -15 -9 -23 9 -18 -13 7 -30 12 -9 19 -16 15
-16 -4 0 1 -9 10 -20 10 -11 30 -20 46 -20 25 0 28 2 17 15 -9 10 -9 15 -1 15
6 0 11 9 11 20 0 21 -33 29 -45 10 -10 -15 -33 12 -27 32 2 10 -1 18 -7 18 -6
0 -11 -7 -11 -15z"/>
<path d="M7310 7250 c-8 -5 -12 -11 -9 -14 2 -3 11 -1 19 4 8 5 12 11 9 14 -2
3 -11 1 -19 -4z"/>
<path d="M7010 7234 c0 -8 5 -12 10 -9 6 3 10 10 10 16 0 5 -4 9 -10 9 -5 0
-10 -7 -10 -16z"/>
<path d="M6295 7181 c4 -12 2 -21 -4 -21 -6 0 -11 4 -11 9 0 5 -19 8 -42 8
-24 0 -33 -2 -20 -4 12 -3 20 -9 17 -14 -4 -5 5 -9 18 -9 20 0 24 -4 20 -20
-7 -25 14 -26 22 -1 3 10 18 22 33 26 30 7 52 23 52 36 0 5 -12 4 -26 -1 -17
-7 -32 -6 -46 1 -18 9 -19 8 -13 -10z"/>
<path d="M7270 7179 c-19 -11 -29 -19 -22 -19 8 0 11 -11 9 -35 -3 -26 2 -41
19 -60 29 -31 35 -31 68 0 35 32 35 79 0 111 -29 28 -28 28 -74 3z"/>
<path d="M6320 7089 c0 -5 5 -7 10 -4 6 3 10 8 10 11 0 2 -4 4 -10 4 -5 0 -10
-5 -10 -11z"/>
<path d="M7170 7070 c0 -5 7 -10 15 -10 8 0 15 -7 15 -17 0 -9 3 -14 6 -10 10
10 -7 47 -22 47 -8 0 -14 -4 -14 -10z"/>
<path d="M7061 7004 c0 -11 3 -14 6 -6 3 7 2 16 -1 19 -3 4 -6 -2 -5 -13z"/>
<path d="M7200 6760 c0 -19 3 -21 12 -12 9 9 9 15 0 24 -9 9 -12 7 -12 -12z"/>
<path d="M7120 6660 c0 -5 5 -10 11 -10 5 0 7 5 4 10 -3 6 -8 10 -11 10 -2 0
-4 -4 -4 -10z"/>
<path d="M6328 6623 c7 -3 16 -2 19 1 4 3 -2 6 -13 5 -11 0 -14 -3 -6 -6z"/>
<path d="M7177 6593 c-12 -11 -8 -23 8 -23 8 0 15 7 15 15 0 16 -12 20 -23 8z"/>
<path d="M7395 6570 c-3 -5 -13 -7 -23 -4 -15 5 -15 4 1 -6 17 -11 17 -14 3
-35 -20 -31 -20 -74 -1 -81 12 -5 13 -10 4 -20 -9 -11 -7 -15 6 -20 9 -4 21
-2 28 5 6 6 19 11 29 11 10 0 18 6 18 14 0 8 6 17 13 20 10 5 10 7 0 12 -23
10 -13 24 17 24 17 0 30 4 30 9 0 14 -32 23 -44 11 -5 -5 -19 -10 -29 -10 -15
0 -18 5 -14 21 4 15 0 23 -13 26 -11 3 -16 11 -13 19 6 16 -3 19 -12 4z"/>
<path d="M7269 6488 c-4 -44 30 -103 48 -84 10 9 -12 42 -26 39 -15 -4 -14 6
4 23 8 9 15 20 15 25 0 14 -40 11 -41 -3z"/>
<path d="M7495 6410 c-3 -5 -2 -10 4 -10 5 0 13 5 16 10 3 6 2 10 -4 10 -5 0
-13 -4 -16 -10z"/>
<path d="M7710 6170 c-9 -16 -8 -18 5 -14 8 4 15 12 15 20 0 20 -7 17 -20 -6z"/>
<path d="M7790 5930 c0 -5 5 -10 11 -10 5 0 7 5 4 10 -3 6 -8 10 -11 10 -2 0
-4 -4 -4 -10z"/>
<path d="M7840 5889 c0 -6 35 -19 53 -19 4 0 7 7 7 15 0 10 -9 14 -30 12 -16
-1 -30 -5 -30 -8z"/>
<path d="M7835 5720 c-3 -5 -1 -10 4 -10 6 0 11 5 11 10 0 6 -2 10 -4 10 -3 0
-8 -4 -11 -10z"/>
<path d="M7940 5350 c0 -5 6 -13 14 -17 8 -4 17 -22 20 -38 2 -17 5 -32 5 -35
3 -15 21 29 21 52 0 20 -4 26 -15 22 -9 -4 -15 0 -15 10 0 9 -7 16 -15 16 -8
0 -15 -4 -15 -10z"/>
<path d="M8391 4754 c0 -11 3 -14 6 -6 3 7 2 16 -1 19 -3 4 -6 -2 -5 -13z"/>
<path d="M8420 4749 c0 -13 5 -31 10 -39 7 -11 8 -5 4 20 -8 43 -14 51 -14 19z"/>
<path d="M8370 4460 c0 -11 2 -20 4 -20 2 0 6 9 9 20 3 11 1 20 -4 20 -5 0 -9
-9 -9 -20z"/>
<path d="M8431 4384 c0 -11 3 -14 6 -6 3 7 2 16 -1 19 -3 4 -6 -2 -5 -13z"/>
<path d="M8398 4364 c-2 -32 -6 -68 -10 -88 -5 -29 17 -30 30 -1 16 34 15 66
-3 89 -15 20 -15 20 -17 0z"/>
<path d="M5260 4152 c0 -4 14 -30 31 -58 38 -59 64 -117 72 -164 6 -31 3 -28
-26 25 -46 84 -56 97 -84 119 -24 18 -25 18 -14 0 6 -11 19 -29 28 -42 16 -23
16 -23 -13 -16 -27 6 -27 5 12 -25 46 -35 80 -101 91 -178 6 -44 5 -47 -10
-34 -15 12 -17 11 -16 -5 4 -42 -2 -63 -20 -69 -26 -8 -31 -25 -20 -74 11 -51
14 -140 5 -169 -4 -12 -4 -22 1 -22 7 0 48 89 80 174 l11 31 21 -45 c11 -25
21 -53 21 -62 0 -26 17 -22 36 7 9 14 28 28 42 32 39 10 73 29 64 38 -4 4 2 5
13 3 11 -2 19 -9 18 -15 -3 -15 25 -25 33 -12 3 6 10 6 17 1 8 -6 23 -4 42 4
17 7 24 13 16 14 -9 0 -11 8 -7 25 5 21 2 27 -18 34 -16 7 -26 20 -30 44 -4
19 -17 51 -30 70 -14 20 -22 38 -18 41 3 3 0 6 -6 6 -7 0 -11 3 -11 8 5 28 -2
35 -19 19 -18 -16 -20 -13 -45 73 -15 49 -27 106 -27 127 l-1 38 -14 -30 -13
-30 -2 30 c-1 30 -2 29 -16 -10 -8 -22 -21 -62 -29 -90 l-14 -50 0 53 c-1 39
6 67 29 112 38 75 38 94 0 53 l-29 -32 -3 26 c-2 20 -9 27 -30 29 -32 3 -33 0
-13 -52 15 -38 15 -38 -2 -18 -20 23 -86 74 -96 74 -4 0 -7 -4 -7 -8z m225
-468 c-19 -19 -12 -32 8 -16 8 7 17 9 20 5 11 -10 8 -21 -5 -26 -14 -4 8 -1
55 9 17 4 27 2 27 -5 0 -7 -4 -10 -9 -6 -5 3 -12 1 -16 -5 -4 -6 -10 -8 -15
-5 -5 3 -12 0 -15 -5 -4 -6 -17 -15 -28 -21 -12 -5 -32 -16 -45 -26 -23 -16
-23 -16 -16 13 4 16 12 32 18 36 7 5 5 8 -5 8 -21 0 -20 37 1 50 26 17 44 12
25 -6z"/>
<path d="M5588 4063 c12 -18 31 -51 42 -75 11 -24 20 -36 20 -28 0 19 -55 116
-72 126 -6 4 -2 -6 10 -23z"/>
<path d="M8671 4034 c0 -11 3 -14 6 -6 3 7 2 16 -1 19 -3 4 -6 -2 -5 -13z"/>
<path d="M5656 3898 c13 -43 23 -68 28 -68 3 0 -2 20 -11 45 -15 45 -31 65
-17 23z"/>
<path d="M5703 3786 c4 -10 7 -22 7 -27 0 -5 4 -9 9 -9 12 0 2 38 -12 47 -7 4
-8 0 -4 -11z"/>
<path d="M8467 3695 c-4 -8 -2 -17 3 -20 6 -4 10 3 10 14 0 25 -6 27 -13 6z"/>
<path d="M5626 3566 c-16 -25 -56 -41 -56 -23 0 8 -4 7 -12 -1 -7 -7 -20 -12
-31 -12 -10 0 -15 -4 -12 -10 4 -6 -6 -10 -23 -10 -32 0 -49 -29 -28 -50 8 -8
7 -14 -4 -21 -13 -9 -12 -10 3 -5 10 3 17 0 17 -8 0 -8 3 -21 6 -29 12 -33
-31 -10 -49 26 -20 39 -37 48 -37 20 0 -14 -9 -18 -45 -20 -24 -1 -49 -4 -55
-8 -7 -4 -10 -35 -9 -76 l2 -70 -81 -87 c-124 -133 -143 -161 -131 -183 14
-27 35 -23 59 12 13 17 33 34 46 39 13 5 24 14 24 20 0 7 -7 7 -21 -1 -19 -10
-20 -9 -14 13 16 51 40 61 70 28 21 -24 37 -26 29 -5 -7 17 53 78 67 69 5 -3
7 -10 4 -15 -8 -11 31 -62 52 -70 15 -5 22 -30 24 -85 1 -19 5 -21 38 -13 21
5 60 10 88 11 36 2 49 6 42 14 -5 6 -6 13 -3 16 3 3 -2 22 -10 43 -9 20 -15
39 -15 43 3 21 -2 32 -12 26 -8 -4 -9 1 -4 16 5 17 4 21 -6 15 -9 -6 -11 -3
-6 8 4 12 -3 24 -23 39 -17 12 -30 27 -30 34 0 7 -5 16 -12 20 -7 4 -8 3 -4
-4 18 -29 -8 -30 -36 -2 -29 30 -30 32 -12 45 23 16 32 11 15 -8 -9 -11 -7
-17 6 -28 16 -13 17 -12 4 4 -12 15 -11 17 3 17 14 0 15 4 6 20 -8 14 -8 26 0
40 15 27 28 25 42 -6 12 -25 15 -26 68 -21 64 5 141 27 135 37 -2 4 7 13 20
20 17 9 23 19 20 31 -4 10 -2 34 4 54 8 31 8 34 -7 25 -9 -5 -30 -21 -47 -36
-16 -14 -44 -33 -62 -40 -38 -16 -137 -20 -113 -4 13 9 13 10 0 10 -9 0 -21
13 -27 29 -11 29 -10 30 26 30 43 0 164 34 197 56 23 15 23 17 8 32 -13 14
-17 14 -25 2 -7 -11 -12 -12 -28 -2 -16 10 -22 9 -35 -11z m74 -166 c-19 -11
-30 -20 -25 -21 26 -3 -46 -17 -90 -17 -45 0 -119 15 -87 17 7 1 11 4 9 9 -3
4 22 6 54 5 33 0 81 5 107 12 66 18 72 17 32 -5z m-448 -242 c-6 -6 -15 -8
-19 -4 -4 4 -1 11 7 16 8 5 17 7 19 4 3 -2 -1 -10 -7 -16z m-132 -113 c-7 -8
-17 -15 -23 -15 -6 0 -2 7 9 15 25 19 30 19 14 0z"/>
<path d="M5600 3565 c0 -8 2 -15 4 -15 2 0 6 7 10 15 3 8 1 15 -4 15 -6 0 -10
-7 -10 -15z"/>
<path d="M5053 3540 c-24 -24 -44 -112 -31 -132 15 -24 68 46 68 90 0 55 -13
69 -37 42z"/>
<path d="M5666 3505 c-23 -10 -25 -13 -12 -18 15 -6 76 17 76 28 0 7 -35 1
-64 -10z"/>
<path d="M5059 3409 c-27 -29 -28 -34 -15 -53 8 -11 21 -20 29 -20 9 1 13 -4
11 -11 -3 -6 2 -18 11 -25 12 -10 15 -10 15 4 0 9 5 16 10 16 6 0 10 -5 10
-12 0 -6 2 -9 5 -6 10 10 -7 58 -17 52 -6 -4 -8 -1 -6 7 3 8 -1 26 -8 40 -7
15 -10 29 -7 33 4 3 3 6 -1 6 -5 0 -21 -14 -37 -31z"/>
<path d="M5741 3390 c-13 -11 -19 -20 -14 -20 6 0 18 9 28 20 23 25 17 25 -14
0z"/>
<path d="M8268 3384 c-11 -23 -10 -28 7 -40 13 -10 22 -11 29 -4 8 8 7 13 -2
19 -7 4 -10 15 -7 23 11 28 -14 30 -27 2z"/>
<path d="M5004 3333 c3 -21 11 -74 17 -119 6 -44 14 -87 19 -94 13 -21 39 -4
33 22 -3 14 -1 18 4 12 6 -9 11 -8 20 2 10 10 9 16 -9 28 -18 13 -19 16 -6 16
9 0 20 5 24 12 4 6 3 8 -3 5 -6 -4 -14 1 -19 11 -10 24 -11 29 -13 58 -1 16
-5 23 -13 18 -7 -4 -8 -3 -4 5 8 12 -18 44 -28 34 -3 -4 -6 1 -6 10 0 10 -5
17 -11 17 -7 0 -9 -14 -5 -37z m76 -111 c0 -4 -9 -13 -20 -20 -19 -12 -20 -11
-8 8 13 20 28 27 28 12z m-20 -62 c0 -5 -5 -10 -11 -10 -5 0 -7 5 -4 10 3 6 8
10 11 10 2 0 4 -4 4 -10z"/>
<path d="M5735 3344 c-40 -33 -104 -62 -154 -70 -22 -4 -38 -11 -35 -16 7 -11
97 -3 122 11 9 5 20 9 25 10 19 1 66 37 76 57 15 33 1 36 -34 8z"/>
<path d="M5845 3311 c0 -22 4 -37 9 -34 5 4 7 -7 3 -25 -4 -17 -3 -33 2 -36
10 -7 11 16 5 82 -6 61 -19 70 -19 13z"/>
<path d="M5791 3308 c-1 -10 -5 -18 -10 -18 -6 0 -25 -14 -43 -30 -18 -17 -51
-39 -73 -50 -31 -15 -35 -20 -18 -20 46 0 101 31 128 71 14 22 24 46 21 52 -2
7 -5 4 -5 -5z"/>
<path d="M8197 3186 c-15 -22 -15 -25 0 -30 8 -4 21 -2 28 4 6 5 16 6 21 2 5
-4 0 4 -11 18 -11 14 -20 26 -21 28 -1 1 -8 -8 -17 -22z"/>
<path d="M5300 3120 c0 -5 5 -10 11 -10 5 0 7 5 4 10 -3 6 -8 10 -11 10 -2 0
-4 -4 -4 -10z"/>
<path d="M8178 3113 c7 -3 16 -2 19 1 4 3 -2 6 -13 5 -11 0 -14 -3 -6 -6z"/>
<path d="M5048 3074 c4 -22 6 -24 14 -10 9 16 3 36 -11 36 -5 0 -6 -12 -3 -26z"/>
<path d="M5756 3065 c-11 -8 -15 -15 -9 -15 6 0 16 7 23 15 16 19 11 19 -14 0z"/>
<path d="M8260 3065 c-11 -13 -10 -14 4 -9 9 3 16 10 16 15 0 13 -6 11 -20 -6z"/>
<path d="M5648 3063 c7 -3 16 -2 19 1 4 3 -2 6 -13 5 -11 0 -14 -3 -6 -6z"/>
<path d="M5680 3061 c0 -4 11 -6 25 -3 14 2 25 6 25 8 0 2 -11 4 -25 4 -14 0
-25 -4 -25 -9z"/>
<path d="M5299 3023 c-1 -10 -2 -38 -3 -62 -2 -33 -8 -49 -27 -64 -13 -10 -23
-27 -22 -36 2 -9 -2 -6 -9 7 -9 19 -17 21 -47 16 -27 -4 -32 -3 -21 5 8 6 23
11 33 11 10 0 29 11 42 25 29 28 33 65 8 65 -31 0 -94 -26 -115 -47 -18 -19
-21 -34 -16 -85 0 -7 -2 -59 -6 -115 -3 -57 -5 -103 -2 -103 2 0 15 34 30 75
19 53 24 80 17 93 -5 9 -11 22 -13 27 -1 6 -6 9 -9 8 -3 -1 -6 5 -6 13 0 24
16 16 65 -33 26 -27 41 -40 34 -31 -13 16 -11 16 18 8 27 -8 30 -7 20 5 -10
12 -8 15 10 15 13 0 20 3 17 7 -8 7 11 33 25 33 5 0 20 -12 33 -26 l25 -27 0
32 c0 17 -5 31 -11 31 -5 0 -7 -6 -3 -12 6 -10 4 -10 -7 0 -7 6 -23 12 -36 12
-22 0 -22 1 -5 30 9 16 20 30 24 30 13 0 22 -24 10 -28 -21 -7 -13 -17 15 -19
14 0 22 2 17 5 -13 10 -34 50 -34 64 0 10 2 10 9 0 7 -11 9 -11 14 2 4 9 1 15
-6 13 -6 -1 -13 7 -15 18 -2 11 -14 28 -28 38 -23 17 -24 17 -25 0z m41 -37
c0 -2 -8 -10 -17 -17 -16 -13 -17 -12 -4 4 13 16 21 21 21 13z m-30 -76 c0
-10 -10 -24 -21 -31 -21 -11 -21 -11 -3 20 21 36 24 38 24 11z m-105 -60 c3
-5 1 -10 -4 -10 -6 0 -11 5 -11 10 0 6 2 10 4 10 3 0 8 -4 11 -10z"/>
<path d="M5628 2993 c6 -2 18 -2 25 0 6 3 1 5 -13 5 -14 0 -19 -2 -12 -5z"/>
<path d="M5688 2983 c7 -3 16 -2 19 1 4 3 -2 6 -13 5 -11 0 -14 -3 -6 -6z"/>
<path d="M5720 2976 c0 -2 7 -7 16 -10 8 -3 12 -2 9 4 -6 10 -25 14 -25 6z"/>
<path d="M5786 2906 c22 -48 26 -68 21 -115 -3 -35 -2 -47 3 -31 4 14 8 50 9
80 1 48 -3 60 -29 90 l-30 35 26 -59z"/>
<path d="M5656 2908 c15 -20 30 -35 33 -32 3 2 -10 19 -28 37 l-34 32 29 -37z"/>
<path d="M5575 2899 c10 -10 22 -16 27 -13 12 8 -6 27 -28 30 -14 2 -14 0 1
-17z"/>
<path d="M8125 2910 c-3 -5 -1 -10 4 -10 6 0 11 5 11 10 0 6 -2 10 -4 10 -3 0
-8 -4 -11 -10z"/>
<path d="M8075 2890 c-3 -5 -1 -10 4 -10 6 0 11 5 11 10 0 6 -2 10 -4 10 -3 0
-8 -4 -11 -10z"/>
<path d="M5981 2874 c0 -11 3 -14 6 -6 3 7 2 16 -1 19 -3 4 -6 -2 -5 -13z"/>
<path d="M5610 2878 c0 -4 9 -22 20 -40 11 -18 20 -28 20 -23 0 6 -9 24 -20
40 -11 17 -20 27 -20 23z"/>
<path d="M8151 2837 c-29 -22 -38 -33 -27 -35 15 -3 86 46 86 61 0 13 -14 7
-59 -26z"/>
<path d="M5690 2853 c0 -4 5 -15 10 -23 8 -13 10 -13 10 2 0 9 -4 20 -10 23
-5 3 -10 3 -10 -2z"/>
<path d="M5457 2789 c3 -24 7 -46 9 -48 9 -10 3 65 -5 78 -6 10 -8 -1 -4 -30z"/>
<path d="M5330 2779 c19 -64 12 -174 -15 -251 -14 -39 -23 -73 -21 -75 2 -2
16 30 31 71 24 67 27 86 23 171 -2 54 -9 100 -16 107 -9 9 -9 4 -2 -23z"/>
<path d="M5712 2790 c0 -14 2 -19 5 -12 2 6 2 18 0 25 -3 6 -5 1 -5 -13z"/>
<path d="M8090 2780 c-13 -8 -13 -10 2 -10 9 0 20 5 23 10 8 13 -5 13 -25 0z"/>
<path d="M5270 2727 c4 -41 5 -41 8 -8 2 18 0 37 -5 42 -5 5 -6 -11 -3 -34z"/>
<path d="M5312 2750 c0 -14 2 -19 5 -12 2 6 2 18 0 25 -3 6 -5 1 -5 -13z"/>
<path d="M5731 2754 c0 -11 3 -14 6 -6 3 7 2 16 -1 19 -3 4 -6 -2 -5 -13z"/>
<path d="M7983 2715 c-35 -24 -95 -61 -135 -82 -69 -35 -71 -37 -44 -44 32 -9
67 2 94 28 31 30 113 97 138 113 23 14 32 30 17 30 -5 -1 -36 -21 -70 -45z"/>
<path d="M5242 2700 c0 -19 2 -27 5 -17 2 9 2 25 0 35 -3 9 -5 1 -5 -18z"/>
<path d="M5473 2685 c0 -22 2 -30 4 -17 2 12 2 30 0 40 -3 9 -5 -1 -4 -23z"/>
<path d="M5722 2700 c0 -14 2 -19 5 -12 2 6 2 18 0 25 -3 6 -5 1 -5 -13z"/>
<path d="M7760 2700 c0 -5 6 -10 14 -10 8 0 18 5 21 10 3 6 -3 10 -14 10 -12
0 -21 -4 -21 -10z"/>
<path d="M5045 2670 c4 -7 3 -15 -3 -19 -6 -4 -5 -11 4 -19 12 -11 14 -9 14
12 0 14 -5 28 -12 32 -7 5 -8 3 -3 -6z"/>
<path d="M7680 2664 c0 -8 5 -12 10 -9 6 4 8 11 5 16 -9 14 -15 11 -15 -7z"/>
<path d="M5141 2634 c0 -11 3 -14 6 -6 3 7 2 16 -1 19 -3 4 -6 -2 -5 -13z"/>
<path d="M7094 2636 c-3 -8 -4 -29 -2 -48 3 -29 4 -27 8 15 5 48 3 58 -6 33z"/>
<path d="M5463 2580 c0 -25 2 -35 4 -22 2 12 2 32 0 45 -2 12 -4 2 -4 -23z"/>
<path d="M5651 2584 c-6 -15 -9 -29 -7 -32 3 -2 10 8 16 23 14 36 7 43 -9 9z"/>
<path d="M7338 2559 c-6 -4 -15 -6 -18 -4 -4 2 -4 -9 -2 -26 3 -19 0 -29 -8
-29 -9 0 -9 -4 1 -17 10 -11 10 -14 2 -9 -10 5 -13 -2 -13 -27 0 -21 -5 -34
-13 -34 -8 0 -12 11 -11 26 1 14 -1 18 -3 9 -9 -37 -27 -17 -26 29 0 6 -6 9
-13 6 -17 -6 -19 -23 -3 -23 6 0 9 -14 7 -32 -3 -30 1 -35 42 -55 46 -23 77
-31 50 -13 -12 8 -12 10 5 10 16 0 17 2 6 9 -12 8 -12 12 -2 24 7 9 12 45 13
86 0 39 4 68 9 66 4 -3 10 -2 13 3 6 11 -19 11 -36 1z m-21 -166 c-3 -10 -5
-4 -5 12 0 17 2 24 5 18 2 -7 2 -21 0 -30z"/>
<path d="M5382 2540 c0 -14 2 -19 5 -12 2 6 2 18 0 25 -3 6 -5 1 -5 -13z"/>
<path d="M5274 2504 c-8 -20 -13 -39 -10 -42 3 -3 6 -3 6 0 0 3 7 22 15 42 8
20 13 36 10 36 -3 0 -13 -16 -21 -36z"/>
<path d="M5451 2514 c0 -11 3 -14 6 -6 3 7 2 16 -1 19 -3 4 -6 -2 -5 -13z"/>
<path d="M7411 2514 c0 -11 3 -14 6 -6 3 7 2 16 -1 19 -3 4 -6 -2 -5 -13z"/>
<path d="M7377 2483 c-4 -3 -7 -24 -7 -45 0 -21 -3 -38 -8 -38 -4 0 -7 -13 -7
-30 -1 -25 4 -32 33 -41 18 -6 36 -8 39 -5 4 3 -2 6 -12 6 -18 0 -18 1 1 15
12 9 14 14 6 15 -7 0 -10 5 -6 11 4 8 -1 9 -17 4 -19 -5 -21 -4 -9 4 8 6 10
11 4 11 -12 0 -11 71 1 90 7 11 -8 14 -18 3z"/>
<path d="M5390 2440 c-6 -11 -8 -20 -6 -20 3 0 10 9 16 20 6 11 8 20 6 20 -3
0 -10 -9 -16 -20z"/>
<path d="M7216 2433 c-6 -14 -5 -15 5 -6 7 7 10 15 7 18 -3 3 -9 -2 -12 -12z"/>
<path d="M6338 2433 c7 -3 16 -2 19 1 4 3 -2 6 -13 5 -11 0 -14 -3 -6 -6z"/>
<path d="M6645 2430 c-3 -6 5 -10 19 -10 13 0 33 -3 43 -6 10 -3 7 2 -7 10
-29 18 -46 20 -55 6z"/>
<path d="M5327 2383 c-12 -12 -7 -31 9 -37 14 -5 15 -4 5 8 -7 8 -10 20 -6 26
7 11 2 14 -8 3z"/>
<path d="M7070 2361 c0 -13 49 -51 66 -51 27 0 14 20 -26 40 -22 11 -40 16
-40 11z"/>
<path d="M7241 2347 c14 -7 24 -18 21 -25 -3 -9 2 -13 14 -10 30 5 26 23 -9
36 -42 15 -61 14 -26 -1z"/>
<path d="M6370 2324 c0 -3 7 -21 16 -40 l16 -33 39 20 c49 24 50 39 3 39 -19
0 -44 5 -55 10 -10 6 -19 8 -19 4z"/>
<path d="M6306 2292 c-3 -5 1 -9 9 -9 8 0 15 4 15 9 0 4 -4 8 -9 8 -6 0 -12
-4 -15 -8z"/>
<path d="M6730 2270 c0 -5 12 -10 26 -10 14 0 23 4 19 10 -3 6 -15 10 -26 10
-10 0 -19 -4 -19 -10z"/>
<path d="M6900 2274 c0 -5 6 -18 13 -29 11 -13 16 -15 22 -6 4 7 2 18 -4 24
-6 6 -11 7 -11 2 0 -6 -5 -3 -10 5 -5 8 -10 10 -10 4z"/>
<path d="M6788 2253 c-23 -6 -22 -12 2 -43 16 -21 21 -23 32 -11 10 11 10 12
0 7 -10 -6 -11 -1 -7 17 7 27 -1 36 -27 30z"/>
<path d="M6420 2230 c0 -5 6 -7 14 -4 10 4 13 0 9 -14 -5 -19 19 -52 39 -52 5
0 7 7 4 16 -5 12 -3 14 7 8 7 -5 6 -2 -3 6 -16 15 -20 23 -20 40 0 6 -11 10
-25 10 -14 0 -25 -4 -25 -10z"/>
<path d="M6742 2226 c7 -8 15 -12 17 -11 5 6 -10 25 -20 25 -5 0 -4 -6 3 -14z"/>
<path d="M6946 2231 c-4 -5 -2 -12 3 -15 5 -4 12 -2 15 3 4 5 2 12 -3 15 -5 4
-12 2 -15 -3z"/>
<path d="M8756 2232 c-3 -5 8 -6 25 -4 16 2 29 6 29 8 0 8 -49 4 -54 -4z"/>
<path d="M6455 2140 c-4 -6 -3 -16 3 -22 13 -13 23 4 13 21 -7 10 -10 10 -16
1z"/>
<path d="M6485 2125 c0 -14 3 -25 6 -25 4 0 9 11 11 25 3 15 1 25 -6 25 -6 0
-11 -11 -11 -25z"/>
<path d="M6400 1991 c0 -32 11 -51 29 -51 9 0 22 -5 29 -12 9 -9 13 -7 18 5 8
22 -3 37 -27 37 -12 0 -17 4 -13 11 3 6 0 15 -7 20 -21 13 -29 11 -29 -10z"/>
<path d="M7018 1943 c6 -2 18 -2 25 0 6 3 1 5 -13 5 -14 0 -19 -2 -12 -5z"/>
<path d="M6500 1906 c0 -2 8 -10 18 -17 15 -13 16 -12 3 4 -13 16 -21 21 -21
13z"/>
<path d="M9245 1880 c-13 -6 12 -9 73 -9 55 -1 92 3 92 9 0 12 -137 12 -165 0z"/>
<path d="M6546 1828 c5 -7 9 -16 9 -20 0 -12 19 -11 23 1 2 5 -7 15 -19 21
-17 10 -20 10 -13 -2z"/>
<path d="M6594 1722 c3 -5 -3 -15 -12 -24 -36 -32 -61 -67 -51 -73 5 -4 7 -10
4 -15 -3 -4 2 -13 10 -20 8 -7 15 -24 14 -39 0 -23 -1 -24 -8 -6 -8 19 -8 19
-15 -2 -6 -20 -10 -21 -28 -12 -15 8 -19 8 -13 0 4 -7 2 -17 -3 -24 -6 -7 -13
-37 -16 -67 -2 -30 -8 -65 -11 -77 -5 -15 -3 -23 5 -23 7 0 10 7 6 15 -4 11 1
15 17 15 16 0 19 -2 8 -9 -11 -7 -10 -14 8 -39 11 -17 21 -35 21 -42 0 -6 5
-8 12 -4 7 5 8 3 3 -5 -5 -9 -10 -10 -18 -2 -13 13 -28 15 -26 4 3 -20 -2 -26
-11 -13 -5 8 -10 10 -10 4 0 -14 38 -64 48 -63 21 3 32 -3 32 -18 0 -16 -2
-16 -11 -3 -13 18 -10 9 19 -52 16 -37 25 -46 38 -41 12 5 15 3 9 -6 -5 -10
-2 -11 14 -6 12 4 21 2 21 -4 0 -6 17 -11 38 -11 25 0 33 3 23 9 -11 7 -7 13
15 27 53 34 63 54 57 109 -3 28 -10 58 -15 68 -7 14 -4 17 18 17 23 0 25 3 20
23 -4 12 -9 33 -12 47 -11 55 -26 90 -37 83 -6 -4 -8 0 -4 11 4 10 -1 23 -13
33 -10 9 -16 21 -13 27 3 6 0 6 -7 -1 -9 -9 -10 -16 -3 -25 6 -7 15 -29 21
-48 5 -19 13 -44 18 -55 5 -13 -1 -9 -17 10 -33 40 -63 110 -54 126 5 7 4 10
-2 6 -6 -4 -18 13 -27 36 -15 39 -15 43 1 55 13 9 14 15 5 24 -9 9 -12 9 -12
0 0 -7 -5 -12 -10 -12 -7 0 -7 6 -1 18 8 14 6 19 -5 19 -7 0 -14 -5 -14 -10 0
-6 -2 -8 -5 -5 -9 9 7 38 17 32 5 -3 4 3 -4 15 -7 11 -19 23 -26 26 -7 2 -11
1 -8 -3z m-4 -52 c0 -5 -4 -10 -10 -10 -5 0 -10 5 -10 10 0 6 5 10 10 10 6 0
10 -4 10 -10z m80 -202 c0 -19 -2 -20 -10 -8 -13 19 -13 30 0 30 6 0 10 -10
10 -22z m79 -157 c-15 -5 -22 6 -14 19 6 9 10 9 16 -1 5 -8 4 -15 -2 -18z
m-224 -71 c-3 -5 -12 -10 -18 -10 -7 0 -6 4 3 10 19 12 23 12 15 0z m165 -150
c0 -5 -4 -10 -10 -10 -5 0 -10 5 -10 10 0 6 5 10 10 10 6 0 10 -4 10 -10z"/>
<path d="M6471 1294 c0 -11 3 -14 6 -6 3 7 2 16 -1 19 -3 4 -6 -2 -5 -13z"/>
<path d="M6835 1289 c-4 -6 -4 -13 0 -17 3 -3 10 -1 14 6 6 10 10 10 20 -2 6
-8 19 -13 27 -12 16 3 20 20 4 22 -5 1 -11 2 -12 3 -11 9 -48 9 -53 0z"/>
<path d="M6846 1244 c-8 -20 -10 -18 36 -31 27 -8 40 -8 45 -1 4 7 1 8 -7 3
-9 -5 -10 -2 -6 12 4 14 1 19 -13 20 -11 1 -19 -4 -17 -10 1 -7 1 -9 -1 -5 -2
4 -10 6 -16 4 -7 -1 -9 -1 -4 1 10 6 9 23 -2 23 -5 0 -12 -7 -15 -16z"/>
<path d="M7000 1181 l45 -6 -63 -8 c-39 -4 -79 -2 -106 5 -43 11 -76 7 -76
-10 0 -5 12 -7 28 -4 22 4 25 2 15 -9 -17 -18 -16 -42 1 -36 7 3 18 1 23 -4 7
-7 32 -7 74 1 120 20 119 20 119 45 0 27 -18 36 -68 33 -36 -1 -36 -1 8 -7z
m7 -27 c-3 -3 -12 -4 -19 -1 -8 3 -5 6 6 6 11 1 17 -2 13 -5z"/>
<path d="M7570 1101 c0 -15 64 -24 106 -16 20 3 34 8 33 9 -11 9 -139 15 -139
7z"/>
<path d="M6758 1093 c7 -3 16 -2 19 1 4 3 -2 6 -13 5 -11 0 -14 -3 -6 -6z"/>
<path d="M7041 1081 c18 -13 49 -20 122 -25 92 -6 127 2 75 19 -35 10 -122 12
-134 3 -6 -5 -24 -2 -40 7 -40 21 -52 19 -23 -4z"/>
<path d="M6728 1078 c5 -5 16 -8 23 -6 8 3 3 7 -10 11 -17 4 -21 3 -13 -5z"/>
<path d="M7425 1058 c-19 -12 -19 -12 5 -19 47 -13 180 -10 180 4 0 7 -8 13
-17 14 -10 0 -47 3 -83 7 -45 5 -71 3 -85 -6z"/>
<path d="M7333 1048 c4 -13 25 -18 41 -10 10 5 -14 22 -32 22 -8 0 -12 -6 -9
-12z"/>
<path d="M7100 1003 c0 -5 10 -9 23 -10 12 -1 38 -4 57 -7 l35 -5 -40 14 c-45
15 -75 19 -75 8z"/>
<path d="M7262 994 c-14 -10 -12 -12 14 -17 53 -11 174 -6 205 7 l32 13 -37 7
c-54 10 -195 4 -214 -10z"/>
<path d="M7180 966 c0 -2 7 -7 16 -10 8 -3 12 -2 9 4 -6 10 -25 14 -25 6z"/>
<path d="M7420 950 c-12 -8 -11 -10 8 -10 12 0 22 5 22 10 0 13 -11 13 -30 0z"/>
<path d="M7043 943 c9 -2 23 -2 30 0 6 3 -1 5 -18 5 -16 0 -22 -2 -12 -5z"/>
<path d="M6992 921 c-11 -6 -10 -10 4 -15 9 -3 14 -9 11 -12 -3 -3 -14 -1 -24
4 -12 6 -26 5 -41 -3 -19 -10 -21 -13 -7 -19 9 -3 13 -11 9 -17 -4 -8 -3 -9 4
-5 7 4 12 2 12 -3 0 -6 5 -11 11 -11 5 0 7 5 4 10 -3 6 3 10 14 10 12 0 21 -7
21 -15 0 -10 9 -15 28 -14 25 2 26 2 3 6 -16 3 -20 7 -12 13 8 4 -5 12 -34 19
-28 7 -43 16 -39 22 4 7 9 7 13 2 3 -6 24 -13 46 -16 28 -5 34 -4 20 3 -16 7
-11 9 23 9 45 1 49 15 8 31 -27 10 -46 -1 -20 -12 16 -6 15 -7 -6 -5 -14 1
-24 8 -22 15 2 14 -7 15 -26 3z"/>
<path d="M7135 920 c-16 -7 -17 -9 -3 -9 9 -1 25 -4 35 -7 14 -5 15 -4 4 4
-11 8 -10 11 5 15 18 4 18 5 -1 5 -11 0 -29 -3 -40 -8z"/>
<path d="M7245 888 c4 -10 -9 -13 -51 -14 -35 -1 -51 2 -43 7 10 6 6 9 -13 9
-18 0 -28 -5 -28 -15 0 -11 12 -15 43 -16 23 0 54 -2 70 -4 15 -2 27 1 27 6 0
5 7 9 16 9 20 0 13 24 -9 28 -11 2 -15 -1 -12 -10z"/>
<path d="M7294 869 c-3 -5 9 -9 25 -9 17 0 31 2 31 4 0 8 -51 13 -56 5z"/>
<path d="M7065 860 c-3 -5 -2 -10 4 -10 5 0 16 -7 25 -15 11 -11 20 -12 38 -5
20 9 20 10 2 7 -13 -3 -25 3 -33 14 -12 21 -27 24 -36 9z"/>
<path d="M6775 820 c-18 -8 -17 -9 8 -9 16 -1 26 3 22 9 -3 6 -7 10 -8 9 -1 0
-11 -4 -22 -9z"/>
<path d="M7055 810 c18 -8 18 -9 2 -9 -16 -1 -17 -3 -3 -16 16 -17 42 -20 51
-6 8 14 -24 41 -48 40 -21 0 -21 -1 -2 -9z"/>
<path d="M7158 793 c7 -3 16 -2 19 1 4 3 -2 6 -13 5 -11 0 -14 -3 -6 -6z"/>
<path d="M7130 770 c11 -7 -3 -10 -47 -10 -38 0 -63 -4 -63 -11 0 -5 5 -7 10
-4 6 3 10 1 10 -6 0 -7 3 -9 7 -6 3 4 12 2 20 -4 10 -9 13 -8 13 1 0 7 7 10
15 6 8 -3 15 -1 15 3 0 5 8 7 19 4 10 -3 22 0 25 6 4 6 16 11 27 11 11 0 17 5
14 10 -3 6 -23 10 -43 10 -28 0 -33 -3 -22 -10z"/>
<path d="M6877 739 c7 -7 15 -10 18 -7 3 3 -2 9 -12 12 -14 6 -15 5 -6 -5z"/>
</g>
</svg>
